<svg xmlns="http://www.w3.org/2000/svg" xml:space="preserve" id="Camada_1" x="0" y="0" style="enable-background:new 0 0 179 81" version="1.1" width="179" height="81" viewBox="0 0 179 81"><style>.st0{fill:#fff}</style><path d="M34.7 80.5H34c-.1 0-.1 0-.2-.1l-.1-.1-.6-1.5h-2.8l-.6 1.5c0 .1-.1.1-.1.1s-.1.1-.2.1h-.7l2.5-6.2h.9l2.6 6.2zM33 78.2l-1-2.5c0-.1-.1-.2-.1-.3 0-.1-.1-.2-.1-.3-.1.2-.1.4-.2.6l-1 2.5H33zM41.6 77.4c0 .5-.1.9-.2 1.3s-.4.7-.6 1c-.3.3-.6.5-1 .6s-.8.2-1.3.2h-2.3v-6.2h2.3c.5 0 .9.1 1.3.2s.7.4 1 .6c.3.3.5.6.6 1 .2.4.2.8.2 1.3m-.8 0c0-.4-.1-.7-.2-1-.1-.3-.3-.6-.4-.8-.2-.2-.4-.4-.7-.5s-.6-.2-.9-.2h-1.5v4.9h1.5c.3 0 .6-.1.9-.2.3-.1.5-.3.7-.5s.3-.5.4-.8c.1-.2.2-.6.2-.9M48.4 74.2l-2.5 6.2h-.8l-2.5-6.2h.7c.1 0 .1 0 .2.1l.1.1 1.8 4.4c0 .1.1.2.1.3 0 .1.1.2.1.4 0-.1.1-.2.1-.4 0-.1.1-.2.1-.3l1.8-4.4.1-.1c.1 0 .1-.1.2-.1h.5zM54.6 80.5h-.7c-.1 0-.1 0-.2-.1l-.1-.1-.6-1.5h-2.8l-.6 1.5c0 .1-.1.1-.1.1s-.1.1-.2.1h-.7l2.5-6.2h.9l2.6 6.2zm-1.8-2.3-1-2.5c0-.1-.1-.2-.1-.3 0-.1-.1-.2-.1-.3-.1.2-.1.4-.2.6l-1 2.5h2.4zM61.1 74.2v6.2H60.5l-.1-.1-3.6-4.7V80.4h-.7v-6.2h.7l.1.1 3.6 4.7V74.2h.6zM67.8 79.2s.1 0 0 0l.4.5c-.3.3-.6.5-.9.7-.4.2-.8.2-1.3.2-.4 0-.9-.1-1.2-.2-.4-.2-.7-.4-.9-.7-.3-.3-.5-.6-.6-1s-.2-.8-.2-1.3.1-.9.2-1.3.4-.7.6-1c.3-.3.6-.5 1-.7s.8-.2 1.2-.2c.4 0 .8.1 1.2.2.3.1.6.3.9.6l-.3.4s0 .1-.1.1h-.1c-.1 0-.1 0-.2-.1s-.2-.1-.3-.2c-.1-.1-.3-.1-.5-.2s-.4-.1-.7-.1c-.3 0-.6.1-.9.2s-.5.3-.7.5-.3.5-.5.8c-.1.3-.2.6-.2 1s.1.7.2 1c.1.3.3.6.5.8.2.2.4.4.7.5.3.1.5.2.9.2h.5c.1 0 .3-.1.4-.1s.2-.1.4-.2l.3-.3c.1-.1.2-.1.2-.1M73.8 79.8v.7h-3.9v-6.3h3.9v.7h-3V77h2.4v.7h-2.4v2.1zM81.1 77.4c0 .5-.1.9-.2 1.3s-.4.7-.6 1c-.3.3-.6.5-1 .6s-.8.2-1.3.2h-2.3v-6.2H78c.5 0 .9.1 1.3.2s.7.4 1 .6c.3.3.5.6.6 1s.2.8.2 1.3m-.9 0c0-.4-.1-.7-.2-1s-.3-.6-.4-.8c-.2-.2-.4-.4-.7-.5-.3-.1-.6-.2-.9-.2h-1.5v4.9H78c.3 0 .6-.1.9-.2s.5-.3.7-.5.3-.5.4-.8.2-.6.2-.9M89.8 79.8v.7h-3.9v-6.3h3.9v.7h-3V77h2.4v.7h-2.4v2.1zM96.7 74.2v6.2H96.1l-.1-.1-3.6-4.7V80.4h-.7v-6.2h.7l.1.1 3.6 4.7V74.2h.6zM104 77.5v2.4c-.3.2-.6.4-1 .5s-.7.2-1.2.2-1-.1-1.4-.2c-.4-.2-.7-.4-1-.7-.3-.3-.5-.6-.7-1s-.2-.8-.2-1.3.1-.9.2-1.3.4-.7.6-1c.3-.3.6-.5 1-.7s.8-.2 1.3-.2c.2 0 .5 0 .7.1.2 0 .4.1.6.2s.3.2.5.2c.2.1.3.2.4.3l-.2.4c0 .1-.1.1-.1.1h-.2c-.1 0-.1-.1-.2-.1-.1-.1-.2-.1-.3-.2-.1-.1-.3-.1-.5-.1s-.4-.1-.6-.1c-.4 0-.7.1-1 .2s-.5.3-.7.5-.4.5-.5.8-.2.6-.2 1 .1.7.2 1.1c.1.3.3.6.5.8.2.2.5.4.8.5s.6.2 1 .2c.3 0 .5 0 .8-.1.2-.1.4-.2.7-.3v-1.4h-1.1l-.1-.1v-.5h1.9v-.2zM106 74.2h.8v6.2h-.8zM114.2 74.2v6.2H113.6l-.1-.1-3.6-4.7V80.4h-.7v-6.2h.7l.1.1 3.6 4.7V74.2h.6zM120.4 79.8v.7h-3.9v-6.3h3.9v.7h-3V77h2.4v.7h-2.4v2.1zM126.1 79.8v.7h-3.9v-6.3h3.9v.7h-3V77h2.4v.7h-2.4v2.1zM132.6 80.5h-.7c-.2 0-.3-.1-.3-.2l-1.6-2.2c0-.1-.1-.1-.2-.2H128.9v2.6h-.9v-6.2h1.8c.4 0 .7 0 1 .1s.5.2.7.3c.2.2.3.3.4.5.1.2.1.5.1.7s0 .4-.1.6-.2.4-.3.5c-.1.2-.3.3-.5.4s-.4.2-.6.2c.1.1.2.1.3.3l1.8 2.6zm-2.9-3.2c.2 0 .5 0 .6-.1.2-.1.3-.1.5-.3s.2-.2.3-.4c.1-.2.1-.3.1-.5 0-.4-.1-.7-.4-.8-.2-.2-.6-.3-1.1-.3h-.9v2.4h.9zM134.1 74.2h.8v6.2h-.8zM142.3 74.2v6.2H141.7l-.1-.1-3.6-4.7V80.4h-.7v-6.2h.7l.1.1 3.6 4.7V74.2h.6zM149.7 77.5v2.4c-.3.2-.6.4-1 .5s-.7.2-1.2.2-1-.1-1.4-.2c-.4-.2-.7-.4-1-.7-.3-.3-.5-.6-.7-1s-.2-.8-.2-1.3.1-.9.2-1.3.4-.7.6-1c.3-.3.6-.5 1-.7s.8-.2 1.3-.2c.2 0 .5 0 .7.1.2 0 .4.1.6.2.2.1.3.2.5.2.2.1.3.2.4.3l-.2.4c0 .1-.1.1-.1.1h-.2c-.1 0-.1-.1-.2-.1-.1-.1-.2-.1-.3-.2s-.3-.1-.5-.1-.4-.1-.6-.1c-.4 0-.7.1-1 .2s-.5.3-.7.5-.4.5-.5.8-.2.6-.2 1 .1.7.2 1.1c.1.3.3.6.5.8.2.2.5.4.8.5s.6.2 1 .2c.3 0 .5 0 .8-.1.2-.1.4-.2.7-.3v-1.4h-1.1l-.1-.1v-.5h1.9v-.2zM15.3 50.5H9.6v16H6.1v-16H.4v-2.9h14.9zM32.5 66.5h-3.2c-.6 0-1-.2-1.3-.7l-4-6.1c-.1-.2-.3-.4-.5-.5s-.4-.1-.8-.1h-1.5v7.4h-3.5V47.6h5.8c1.3 0 2.4.1 3.3.4.9.3 1.7.6 2.3 1.1.6.5 1 1.1 1.3 1.7.3.7.4 1.4.4 2.2 0 .6-.1 1.2-.3 1.8-.2.6-.5 1.1-.8 1.5-.4.5-.8.9-1.3 1.2s-1.1.6-1.8.8c.2.1.4.3.6.5s.4.4.5.6l4.8 7.1zm-9-9.9c.7 0 1.2-.1 1.7-.2.5-.2.9-.4 1.2-.7.3-.3.6-.6.7-1 .2-.4.2-.8.2-1.3 0-1-.3-1.7-.9-2.2s-1.6-.8-2.9-.8h-2.2v6.3l2.2-.1zM50.8 66.5h-2.7c-.3 0-.6-.1-.7-.2-.2-.2-.3-.3-.4-.6l-1.4-3.9h-7.8l-1.4 3.9c-.1.2-.2.4-.4.5-.2.2-.4.2-.7.2h-2.7L40 47.5h3.6l7.2 19zm-6.2-7.1-2.3-6.3c-.1-.3-.2-.6-.4-1-.1-.4-.2-.8-.4-1.2-.1.4-.2.9-.4 1.2-.1.4-.2.7-.4 1l-2.3 6.3h6.2zM68.7 47.6v18.9h-1.8c-.3 0-.5 0-.7-.1s-.4-.2-.5-.5l-9.9-12.6c.1.6.1 1.1.1 1.6v11.6h-3.1V47.6H55c.1 0 .2 0 .3.1.1 0 .2.1.2.2l.3.3 9.9 12.7c0-.3 0-.6-.1-.9V47.6h3.1zM83 51.1c-.1.2-.2.3-.3.4-.1.1-.3.1-.4.1-.2 0-.4-.1-.6-.2-.2-.1-.5-.3-.8-.5s-.6-.3-1-.5c-.4-.1-.9-.2-1.4-.2s-.9.1-1.3.2-.7.3-.9.5c-.2.2-.4.5-.6.8-.1.3-.2.6-.2 1s.1.8.4 1.1c.2.3.6.5 1 .8.4.2.9.4 1.4.6.5.2 1.1.3 1.6.5s1.1.4 1.6.7c.5.2 1 .6 1.4.9.4.4.7.8 1 1.4.2.5.4 1.2.4 2 0 .9-.1 1.7-.4 2.4s-.7 1.4-1.3 1.9c-.6.6-1.2 1-2.1 1.3-.8.3-1.7.5-2.8.5-.6 0-1.2-.1-1.8-.2-.6-.1-1.1-.3-1.7-.5-.5-.2-1-.5-1.5-.8s-.9-.6-1.3-1l1-1.7.3-.3c.1-.1.3-.1.4-.1.2 0 .5.1.7.3l.9.6c.3.2.8.4 1.2.6.5.2 1 .3 1.7.3 1 0 1.8-.2 2.3-.7s.8-1.2.8-2c0-.5-.1-.9-.4-1.2-.2-.3-.6-.6-1-.8s-.9-.4-1.4-.5-1.1-.3-1.6-.5-1.1-.4-1.6-.6c-.5-.2-1-.6-1.4-1s-.7-.9-1-1.5c-.2-.6-.4-1.3-.4-2.2 0-.7.1-1.4.4-2 .3-.7.7-1.2 1.2-1.7s1.2-.9 1.9-1.2c.8-.3 1.6-.5 2.6-.5 1.1 0 2.1.2 3.1.5.9.3 1.7.8 2.4 1.5l-.5 1.5zM90.8 50.4V56h7.1v2.8h-7.1v7.7h-3.5V47.6h11.9v2.8zM105.6 50.4v5.3h6.6v2.7h-6.6v5.3h8.4v2.8h-11.9V47.6H114v2.8zM131.9 66.5h-3.2c-.6 0-1-.2-1.3-.7l-4-6.1c-.1-.2-.3-.4-.5-.5s-.4-.1-.8-.1h-1.5v7.4h-3.5V47.6h5.8c1.3 0 2.4.1 3.3.4.9.3 1.7.6 2.3 1.1s1 1.1 1.3 1.7c.3.7.4 1.4.4 2.2 0 .6-.1 1.2-.3 1.8s-.5 1.1-.8 1.5c-.4.5-.8.9-1.3 1.2s-1.1.6-1.8.8c.2.1.4.3.6.5s.4.4.5.6l4.8 7.1zm-9.1-9.9c.7 0 1.2-.1 1.7-.2.5-.2.9-.4 1.2-.7.3-.3.6-.6.7-1 .2-.4.2-.8.2-1.3 0-1-.3-1.7-.9-2.2s-1.6-.8-2.9-.8h-2.2v6.3l2.2-.1zM146.6 50.5h-5.7v16h-3.5v-16h-5.7v-2.9h14.9zM152.6 50.4v5.3h6.7v2.7h-6.7v5.3h8.4v2.8h-11.9V47.6H161v2.8zM176.7 62.1c.2 0 .4.1.5.2l1.4 1.5c-.8 1-1.7 1.7-2.8 2.2s-2.5.8-4 .8c-1.4 0-2.7-.2-3.8-.7s-2.1-1.1-2.9-2c-.8-.9-1.4-1.9-1.8-3.1-.4-1.2-.6-2.5-.6-3.9s.2-2.7.7-3.9 1.1-2.2 1.9-3.1c.8-.9 1.8-1.5 2.9-2 1.1-.5 2.4-.7 3.8-.7s2.6.2 3.7.7c1.1.5 2 1 2.7 1.8l-1.2 1.6-.3.3c-.1.1-.3.1-.5.1-.1 0-.3 0-.4-.1-.1-.1-.3-.2-.5-.3s-.4-.2-.6-.4c-.2-.1-.5-.3-.8-.4-.3-.1-.6-.2-1-.3s-.8-.1-1.3-.1c-.8 0-1.6.2-2.3.5s-1.3.7-1.8 1.3-.9 1.3-1.2 2.1-.4 1.8-.4 2.8c0 1.1.2 2 .5 2.8s.7 1.5 1.2 2.1 1.1 1 1.8 1.3 1.4.5 2.2.5c.5 0 .9 0 1.3-.1s.7-.1 1.1-.2c.3-.1.6-.3.9-.4.3-.2.6-.4.9-.7.1-.1.2-.1.3-.2h.4M99.5 19.6c0 6.8-4.9 12.4-11.3 13.6v3.6c1.5-.2 3-.6 4.4-1.2l1.7 2.9c.2.4.7.5 1.1.3l2.1-1.2c.4-.2.5-.7.3-1.1l-1.7-2.9c1.3-1 2.5-2.2 3.5-3.5l2.9 1.7c.4.2.9.1 1.1-.3l1.2-2.1c.2-.4.1-.9-.3-1.1l-2.9-1.7c.6-1.5 1.1-3.1 1.3-4.8h3.3c.5 0 .8-.4.8-.8v-2.5c0-.5-.4-.8-.8-.8h-3.3c-.2-1.7-.6-3.3-1.3-4.8l2.9-1.7c.4-.2.5-.7.3-1.1L103.6 8c-.2-.4-.7-.5-1.1-.3l-2.9 1.7c-1-1.3-2.2-2.5-3.5-3.5L97.8 3c.2-.5.1-1-.3-1.2L95.4.6c-.4-.2-.9-.1-1.1.3l-1.7 2.9c-1.4-.6-2.8-1-4.4-1.2v3.5c6.4 1.1 11.3 6.8 11.3 13.5" class="st0"/><path d="M90 10.3h-6.5c-.4-1.5-1.8-2.7-3.5-2.7-2 0-3.7 1.6-3.7 3.7 0 2 1.6 3.7 3.7 3.7 1.7 0 3.1-1.1 3.5-2.7h9.4c-.8-.8-1.8-1.5-2.9-2m-10 2.6c-.9 0-1.6-.7-1.6-1.6 0-.9.7-1.6 1.6-1.6s1.6.7 1.6 1.6-.7 1.6-1.6 1.6M96 19.6c0-.3 0-.7-.1-1H79.1c-.4-1.5-1.8-2.7-3.5-2.7-2 0-3.7 1.6-3.7 3.7 0 2 1.6 3.7 3.7 3.7 1.7 0 3.1-1.1 3.5-2.7H96v-1m-20.4 1.7c-.9 0-1.6-.7-1.6-1.6s.7-1.6 1.6-1.6 1.6.7 1.6 1.6c.1.9-.7 1.6-1.6 1.6M92.9 27h-9.4c-.4-1.5-1.8-2.7-3.5-2.7-2 0-3.7 1.6-3.7 3.7 0 2 1.6 3.7 3.7 3.7 1.7 0 3.1-1.1 3.5-2.7h6.4c1.1-.5 2.2-1.2 3-2M80 29.7c-.9 0-1.6-.7-1.6-1.6s.7-1.6 1.6-1.6 1.6.7 1.6 1.6c0 .8-.7 1.6-1.6 1.6" class="st0"/></svg>