<svg xmlns="http://www.w3.org/2000/svg" xml:space="preserve" id="Camada_1" x="0" y="0" style="enable-background:new 0 0 356 160" version="1.1" width="356" height="160" viewBox="0 0 356 160"><style>.st0{fill:#fff}</style><path d="M68.5 159.8h-1.4c-.2 0-.2 0-.4-.2l-.2-.2-1.2-3h-5.6l-1.2 3c0 .2-.2.2-.2.2s-.2.2-.4.2h-1.4l5-12.4h1.8l5.2 12.4zm-3.4-4.6-2-5c0-.2-.2-.4-.2-.6 0-.2-.2-.4-.2-.6-.2.4-.2.8-.4 1.2l-2 5h4.8zM82.3 153.6c0 1-.2 1.8-.4 2.6s-.8 1.4-1.2 2c-.6.6-1.2 1-2 1.2s-1.6.4-2.6.4h-4.6v-12.4h4.6c1 0 1.8.2 2.6.4s1.4.8 2 1.2c.6.6 1 1.2 1.2 2 .4.8.4 1.6.4 2.6m-1.6 0c0-.8-.2-1.4-.4-2s-.6-1.2-.8-1.6c-.4-.4-.8-.8-1.4-1-.6-.2-1.2-.4-1.8-.4h-3v9.8h3c.6 0 1.2-.2 1.8-.4.6-.2 1-.6 1.4-1 .4-.4.6-1 .8-1.6.2-.4.4-1.2.4-1.8M95.9 147.2l-5 12.4h-1.6l-5-12.4h1.4c.2 0 .2 0 .4.2l.2.2 3.6 8.8c0 .2.2.4.2.6s.2.4.2.8c0-.2.2-.4.2-.8 0-.2.2-.4.2-.6l3.6-8.8.2-.2c.2 0 .2-.2.4-.2h1zM108.3 159.8h-1.4c-.2 0-.2 0-.4-.2l-.2-.2-1.2-3h-5.6l-1.2 3c0 .2-.2.2-.2.2s-.2.2-.4.2h-1.4l5-12.4h1.8l5.2 12.4zm-3.6-4.6-2-5c0-.2-.2-.4-.2-.6 0-.2-.2-.4-.2-.6-.2.4-.2.8-.4 1.2l-2 5h4.8zM121.3 147.2v12.4H120.1l-.2-.2-7.2-9.4V159.6h-1.4v-12.4h1.4l.2.2 7.2 9.4V147.2h1.2zM134.7 157.2s.2 0 .2.2l.6.8c-.6.6-1.2 1-1.8 1.4-.8.4-1.6.4-2.6.4-.8 0-1.8-.2-2.4-.4-.8-.4-1.4-.8-1.8-1.4-.6-.6-1-1.2-1.2-2-.2-.8-.4-1.6-.4-2.6s.2-1.8.4-2.6.8-1.4 1.2-2c.6-.6 1.2-1 2-1.4.8-.4 1.6-.4 2.4-.4s1.6.2 2.4.4c.6.2 1.2.6 1.8 1.2l-.6.8s0 .2-.2.2h-.2c-.2 0-.2 0-.4-.2s-.4-.2-.6-.4c-.2-.2-.6-.2-1-.4s-.8-.2-1.4-.2c-.6 0-1.2.2-1.8.4s-1 .6-1.4 1c-.4.4-.6 1-1 1.6-.2.6-.4 1.2-.4 2s.2 1.4.4 2c.2.6.6 1.2 1 1.6.4.4.8.8 1.4 1 .6.2 1 .4 1.8.4h1c.2 0 .6-.2.8-.2.2 0 .4-.2.8-.4l.6-.6c.2-.2.4-.2.4-.2M146.6 158.4v1.4h-7.8v-12.6h7.8v1.4h-6v4.2h4.8v1.4h-4.8v4.2zM161.2 153.6c0 1-.2 1.8-.4 2.6s-.8 1.4-1.2 2c-.6.6-1.2 1-2 1.2-.8.2-1.6.4-2.6.4h-4.6v-12.4h4.6c1 0 1.8.2 2.6.4s1.4.8 2 1.2c.6.6 1 1.2 1.2 2 .2.8.4 1.6.4 2.6m-1.8 0c0-.8-.2-1.4-.4-2s-.6-1.2-.8-1.6c-.4-.4-.8-.8-1.4-1-.6-.2-1.2-.4-1.8-.4h-3v9.8h3c.6 0 1.2-.2 1.8-.4.6-.2 1-.6 1.4-1 .4-.4.6-1 .8-1.6s.4-1.2.4-1.8M178.6 158.4v1.4h-7.8v-12.6h7.8v1.4h-6v4.2h4.8v1.4h-4.8v4.2zM192.4 147.2v12.4H191.2l-.2-.2-7.2-9.4V159.6h-1.4v-12.4h1.4l.2.2 7.2 9.4V147.2h1.2zM207 153.8v4.8c-.6.4-1.2.8-2 1-.8.2-1.4.4-2.4.4s-2-.2-2.8-.4c-.8-.4-1.4-.8-2-1.4-.6-.6-1-1.2-1.4-2-.4-.8-.4-1.6-.4-2.6s.2-1.8.4-2.6.8-1.4 1.2-2c.6-.6 1.2-1 2-1.4.8-.4 1.6-.4 2.6-.4.4 0 1 0 1.4.2.4 0 .8.2 1.2.4.4.2.6.4 1 .4.4.2.6.4.8.6l-.4.8c0 .2-.2.2-.2.2h-.4c-.2 0-.2-.2-.4-.2-.2-.2-.4-.2-.6-.4-.2-.2-.6-.2-1-.2s-.8-.2-1.2-.2c-.8 0-1.4.2-2 .4-.6.2-1 .6-1.4 1-.4.4-.8 1-1 1.6-.2.6-.4 1.2-.4 2s.2 1.4.4 2.2c.2.6.6 1.2 1 1.6.4.4 1 .8 1.6 1 .6.2 1.2.4 2 .4.6 0 1 0 1.6-.2.4-.2.8-.4 1.4-.6v-2.8h-2.2l-.2-.2v-1h3.8v-.4zM211 147.2h1.6v12.4H211zM227.3 147.2v12.4H226.1l-.2-.2-7.2-9.4V159.6h-1.4v-12.4h1.4l.2.2 7.2 9.4V147.2h1.2zM239.7 158.4v1.4h-7.8v-12.6h7.8v1.4h-6v4.2h4.8v1.4h-4.8v4.2zM251.1 158.4v1.4h-7.8v-12.6h7.8v1.4h-6v4.2h4.8v1.4h-4.8v4.2zM264.1 159.8h-1.4c-.4 0-.6-.2-.6-.4l-3.2-4.4c0-.2-.2-.2-.4-.4H256.7v5.2h-1.8v-12.4h3.6c.8 0 1.4 0 2 .2.6.2 1 .4 1.4.6.4.4.6.6.8 1 .2.4.2 1 .2 1.4s0 .8-.2 1.2-.4.8-.6 1c-.2.4-.6.6-1 .8-.4.2-.8.4-1.2.4.2.2.4.2.6.6l3.6 5.2zm-5.8-6.4c.4 0 1 0 1.2-.2.4-.2.6-.2 1-.6.4-.4.4-.4.6-.8.2-.4.2-.6.2-1 0-.8-.2-1.4-.8-1.6-.4-.4-1.2-.6-2.2-.6h-1.8v4.8h1.8zM267.1 147.2h1.6v12.4h-1.6zM283.5 147.2v12.4H282.3l-.2-.2-7.2-9.4V159.6h-1.4v-12.4h1.4l.2.2 7.2 9.4V147.2h1.2zM298.2 153.8v4.8c-.6.4-1.2.8-2 1-.8.2-1.4.4-2.4.4s-2-.2-2.8-.4c-.8-.4-1.4-.8-2-1.4-.6-.6-1-1.2-1.4-2-.4-.8-.4-1.6-.4-2.6s.2-1.8.4-2.6.8-1.4 1.2-2c.6-.6 1.2-1 2-1.4.8-.4 1.6-.4 2.6-.4.4 0 1 0 1.4.2.4 0 .8.2 1.2.4.4.2.6.4 1 .4.4.2.6.4.8.6l-.4.8c0 .2-.2.2-.2.2h-.4c-.2 0-.2-.2-.4-.2-.2-.2-.4-.2-.6-.4-.2-.2-.6-.2-1-.2s-.8-.2-1.2-.2c-.8 0-1.4.2-2 .4-.6.2-1 .6-1.4 1-.4.4-.8 1-1 1.6s-.4 1.2-.4 2 .2 1.4.4 2.2c.2.6.6 1.2 1 1.6.4.4 1 .8 1.6 1 .6.2 1.2.4 2 .4.6 0 1 0 1.6-.2.4-.2.8-.4 1.4-.6v-2.8h-2.2l-.2-.2v-1h3.8v-.4zM29.8 99.9H18.4v31.9h-7V99.9H0v-5.8h29.8zM64.1 131.8h-6.4c-1.2 0-2-.4-2.6-1.4l-8-12.2c-.2-.4-.6-.8-1-1-.4-.2-.8-.2-1.6-.2h-3v14.8h-7V94.1h11.6c2.6 0 4.8.2 6.6.8 1.8.6 3.4 1.2 4.6 2.2 1.2 1 2 2.2 2.6 3.4.6 1.4.8 2.8.8 4.4 0 1.2-.2 2.4-.6 3.6-.4 1.2-1 2.2-1.6 3-.8 1-1.6 1.8-2.6 2.4-1 .6-2.2 1.2-3.6 1.6.4.2.8.6 1.2 1 .4.4.8.8 1 1.2l9.6 14.1zm-17.9-19.7c1.4 0 2.4-.2 3.4-.4 1-.4 1.8-.8 2.4-1.4s1.2-1.2 1.4-2c.4-.8.4-1.6.4-2.6 0-2-.6-3.4-1.8-4.4-1.2-1-3.2-1.6-5.8-1.6h-4.4v12.6h4.4v-.2zM100.7 131.8h-5.4c-.6 0-1.2-.2-1.4-.4-.4-.4-.6-.6-.8-1.2l-2.8-7.8H74.7l-2.8 7.8c-.2.4-.4.8-.8 1-.4.4-.8.4-1.4.4h-5.4l14.8-37.8h7.2l14.4 38zm-12.4-14.1-4.6-12.6c-.2-.6-.4-1.2-.8-2-.2-.8-.4-1.6-.8-2.4-.2.8-.4 1.8-.8 2.4-.2.8-.4 1.4-.8 2l-4.6 12.6h12.4zM136.5 94.1v37.8h-3.6c-.6 0-1 0-1.4-.2-.4-.2-.8-.4-1-1l-19.8-25.2c.2 1.2.2 2.2.2 3.2v23.2h-6.2V94.1h4.4c.2 0 .4 0 .6.2.2 0 .4.2.4.4l.6.6 19.8 25.4c0-.6 0-1.2-.2-1.8V94.1h6.2zM165 101.1c-.2.4-.4.6-.6.8-.2.2-.6.2-.8.2-.4 0-.8-.2-1.2-.4-.4-.2-1-.6-1.6-1-.6-.4-1.2-.6-2-1-.8-.2-1.8-.4-2.8-.4-1 0-1.8.2-2.6.4s-1.4.6-1.8 1c-.4.4-.8 1-1.2 1.6-.2.6-.4 1.2-.4 2s.2 1.6.8 2.2c.4.6 1.2 1 2 1.6.8.4 1.8.8 2.8 1.2s2.2.6 3.2 1 2.2.8 3.2 1.4c1 .4 2 1.2 2.8 1.8.8.8 1.4 1.6 2 2.8.4 1 .8 2.4.8 4 0 1.8-.2 3.4-.8 4.8s-1.4 2.8-2.6 3.8c-1.2 1.2-2.4 2-4.2 2.6-1.6.6-3.4 1-5.6 1-1.2 0-2.4-.2-3.6-.4-1.2-.2-2.2-.6-3.4-1-1-.4-2-1-3-1.6-1-.6-1.8-1.2-2.6-2l2-3.4.6-.6c.2-.2.6-.2.8-.2.4 0 1 .2 1.4.6l1.8 1.2c.6.4 1.6.8 2.4 1.2 1 .4 2 .6 3.4.6 2 0 3.6-.4 4.6-1.4 1-1 1.6-2.4 1.6-4 0-1-.2-1.8-.8-2.4-.4-.6-1.2-1.2-2-1.6-.8-.4-1.8-.8-2.8-1-1-.2-2.2-.6-3.2-1s-2.2-.8-3.2-1.2c-1-.4-2-1.2-2.8-2-.8-.8-1.4-1.8-2-3-.4-1.2-.8-2.6-.8-4.4 0-1.4.2-2.8.8-4 .6-1.4 1.4-2.4 2.4-3.4s2.4-1.8 3.8-2.4c1.6-.6 3.2-1 5.2-1 2.2 0 4.2.4 6.2 1 1.8.6 3.4 1.6 4.8 3l-1 3zM180.6 99.7v11.2h14.2v5.6h-14.2v15.3h-7V94.1h23.8v5.6zM210.2 99.7v10.6h13.1v5.4h-13.1v10.5h16.7v5.6h-23.7V94.1h23.7v5.6zM262.7 131.8h-6.4c-1.2 0-2-.4-2.6-1.4l-8-12.2c-.2-.4-.6-.8-1-1-.4-.2-.8-.2-1.6-.2h-3v14.8h-7V94.1h11.6c2.6 0 4.8.2 6.6.8 1.8.6 3.4 1.2 4.6 2.2 1.2 1 2 2.2 2.6 3.4.6 1.4.8 2.8.8 4.4 0 1.2-.2 2.4-.6 3.6-.4 1.2-1 2.2-1.6 3-.8 1-1.6 1.8-2.6 2.4-1 .6-2.2 1.2-3.6 1.6.4.2.8.6 1.2 1 .4.4.8.8 1 1.2l9.6 14.1zm-18.2-19.7c1.4 0 2.4-.2 3.4-.4 1-.4 1.8-.8 2.4-1.4.6-.6 1.2-1.2 1.4-2 .4-.8.4-1.6.4-2.6 0-2-.6-3.4-1.8-4.4-1.2-1-3.2-1.6-5.8-1.6h-4.4v12.6h4.4v-.2zM292.1 99.9h-11.4v31.9h-7V99.9h-11.4v-5.8h29.8zM304 99.7v10.6h13.4v5.4H304v10.5h16.8v5.6h-23.7V94.1h23.7v5.6zM352.2 123c.4 0 .8.2 1 .4l2.8 3c-1.6 2-3.4 3.4-5.6 4.4s-5 1.6-8 1.6c-2.8 0-5.4-.4-7.6-1.4-2.2-1-4.2-2.2-5.8-4-1.6-1.8-2.8-3.8-3.6-6.2-.8-2.4-1.2-5-1.2-7.8s.4-5.4 1.4-7.8 2.2-4.4 3.8-6.2c1.6-1.8 3.6-3 5.8-4 2.2-1 4.8-1.4 7.6-1.4s5.2.4 7.4 1.4c2.2 1 4 2 5.4 3.6l-2.4 3.2-.6.6c-.2.2-.6.2-1 .2-.2 0-.6 0-.8-.2-.2-.2-.6-.4-1-.6-.4-.2-.8-.4-1.2-.8-.4-.2-1-.6-1.6-.8-.6-.2-1.2-.4-2-.6-.8-.2-1.6-.2-2.6-.2-1.6 0-3.2.4-4.6 1-1.4.6-2.6 1.4-3.6 2.6s-1.8 2.6-2.4 4.2c-.6 1.6-.8 3.6-.8 5.6 0 2.2.4 4 1 5.6.6 1.6 1.4 3 2.4 4.2s2.2 2 3.6 2.6c1.4.6 2.8 1 4.4 1 1 0 1.8 0 2.6-.2s1.4-.2 2.2-.4c.6-.2 1.2-.6 1.8-.8.6-.4 1.2-.8 1.8-1.4.2-.2.4-.2.6-.4h.8M198 38.2c0 13.6-9.8 24.8-22.6 27.2v7.2c3-.4 6-1.2 8.8-2.4l3.4 5.8c.4.8 1.4 1 2.2.6l4.2-2.4c.8-.4 1-1.4.6-2.2l-3.4-5.8c2.6-2 5-4.4 7-7l5.8 3.4c.8.4 1.8.2 2.2-.6l2.4-4.2c.4-.8.2-1.8-.6-2.2l-5.8-3.4c1.2-3 2.2-6.2 2.6-9.6h6.6c1 0 1.6-.8 1.6-1.6v-5c0-1-.8-1.6-1.6-1.6h-6.6c-.4-3.4-1.2-6.6-2.6-9.6l5.8-3.4c.8-.4 1-1.4.6-2.2l-2.4-4.2c-.4-.8-1.4-1-2.2-.6l-5.8 3.4c-2-2.6-4.4-5-7-7l3.4-5.8c.4-1 .2-2-.6-2.4L189.8.2c-.8-.4-1.8-.2-2.2.6l-3.4 5.8c-2.8-1.2-5.6-2-8.8-2.4v7c12.8 2.2 22.6 13.6 22.6 27" class="st0"/><path d="M179 19.6h-13c-.8-3-3.6-5.4-7-5.4-4 0-7.4 3.2-7.4 7.4 0 4 3.2 7.4 7.4 7.4 3.4 0 6.2-2.2 7-5.4h18.8c-1.6-1.6-3.6-3-5.8-4m-20 5.2c-1.8 0-3.2-1.4-3.2-3.2 0-1.8 1.4-3.2 3.2-3.2s3.2 1.4 3.2 3.2-1.4 3.2-3.2 3.2M191 38.2c0-.6 0-1.4-.2-2h-33.6c-.8-3-3.6-5.4-7-5.4-4 0-7.4 3.2-7.4 7.4 0 4 3.2 7.4 7.4 7.4 3.4 0 6.2-2.2 7-5.4H191v-2m-40.8 3.3c-1.8 0-3.2-1.4-3.2-3.2s1.4-3.2 3.2-3.2 3.2 1.4 3.2 3.2c.2 1.8-1.4 3.2-3.2 3.2M184.8 52.9H166c-.8-3-3.6-5.4-7-5.4-4 0-7.4 3.2-7.4 7.4 0 4 3.2 7.4 7.4 7.4 3.4 0 6.2-2.2 7-5.4h12.8c2.2-1 4.4-2.4 6-4M159 58.3c-1.8 0-3.2-1.4-3.2-3.2s1.4-3.2 3.2-3.2 3.2 1.4 3.2 3.2c0 1.6-1.4 3.2-3.2 3.2" class="st0"/></svg>