<?xml version="1.0" encoding="utf-8"?>
<!-- Generator: Adobe Illustrator 27.0.0, SVG Export Plug-In . SVG Version: 6.00 Build 0)  -->
<svg version="1.1" id="Camada_1" xmlns="http://www.w3.org/2000/svg" xmlns:xlink="http://www.w3.org/1999/xlink" x="0px" y="0px"
	 width="294.6px" height="105px" viewBox="0 0 294.6 105" style="enable-background:new 0 0 294.6 105;" xml:space="preserve">
<style type="text/css">
	.st0{clip-path:url(#SVGID_00000145739341574857688010000002614935308833462685_);}
	.st1{fill:#FFFFFF;}
</style>
<g>
	<defs>
		<rect id="SVGID_1_" width="294.6" height="105"/>
	</defs>
	<clipPath id="SVGID_00000180332529590592308790000004161177323259261878_">
		<use xlink:href="#SVGID_1_"  style="overflow:visible;"/>
	</clipPath>
	<g id="Grupo_1544" style="clip-path:url(#SVGID_00000180332529590592308790000004161177323259261878_);">
		<path id="Caminho_2665" class="st1" d="M32.9,103.2c-0.2,0-0.2,0-0.2,0.2c-0.2,0.2-0.3,0.2-0.3,0.3c-0.2,0.2-0.3,0.2-0.5,0.2
			c-0.2,0-0.3,0.2-0.5,0.2h-0.7c-0.3,0-0.7,0-1-0.2c-0.3-0.2-0.7-0.3-0.8-0.7c-0.3-0.3-0.5-0.7-0.5-1c-0.2-0.5-0.2-0.8-0.2-1.3
			c0-0.5,0-0.8,0.2-1.3l0.5-1c0.2-0.3,0.5-0.5,0.8-0.7c0.3-0.2,0.7-0.2,1.2-0.2c0.3,0,0.5,0,0.8,0.2c0.2,0,0.3,0.2,0.5,0.2
			c0.2,0,0.3,0.2,0.3,0.2l0.2,0.2h0.2l0.2-0.2l0.3-0.5c-0.7-0.7-1.6-1-2.6-1c-0.5,0-1.2,0.2-1.6,0.3c-0.5,0.2-0.8,0.5-1.2,0.8
			s-0.7,0.8-0.8,1.3s-0.3,1.2-0.3,1.6s0.2,1.2,0.3,1.6s0.5,1,0.8,1.3c0.3,0.3,0.7,0.7,1.2,0.8c0.5,0.2,1,0.3,1.5,0.3
			c0.7,0,1.2-0.2,1.6-0.3c0.5-0.2,0.8-0.5,1.2-0.8l-0.5-0.5C33.1,103.4,33.1,103.2,32.9,103.2"/>
		<path id="Caminho_2666" class="st1" d="M41.3,98.1c-0.3-0.3-0.8-0.7-1.3-0.8c-1-0.3-2.1-0.3-3.3,0c-0.5,0.2-0.8,0.5-1.3,0.8
			c-0.3,0.3-0.7,0.8-0.8,1.3c-0.3,1-0.3,2.1,0,3.3c0.2,0.5,0.5,1,0.8,1.3c0.3,0.3,0.8,0.7,1.3,0.8c1,0.3,2.1,0.3,3.3,0
			c0.5-0.2,0.8-0.5,1.3-0.8c0.3-0.3,0.7-0.8,0.8-1.3c0.3-1,0.3-2.1,0-3.3C42,98.9,41.6,98.4,41.3,98.1 M41,102.2l-0.5,1
			c-0.2,0.3-0.5,0.5-0.8,0.7c-0.7,0.3-1.5,0.3-2.3,0c-0.3-0.2-0.7-0.3-0.8-0.7c-0.3-0.3-0.5-0.7-0.5-1c-0.3-0.8-0.3-1.6,0-2.5l0.5-1
			c0.2-0.3,0.5-0.5,0.8-0.7c0.7-0.3,1.5-0.3,2.3,0c0.3,0.2,0.7,0.3,0.8,0.7c0.2,0.3,0.5,0.7,0.5,1C41.3,100.6,41.3,101.4,41,102.2"
			/>
		<path id="Caminho_2667" class="st1" d="M51.5,97.1l-0.2,0.2l-2.6,4.8c-0.2,0.2-0.2,0.5-0.3,0.7c0-0.2,0-0.2-0.2-0.3
			c0-0.2-0.2-0.2-0.2-0.3l-2.6-4.8l-0.2-0.2h-1v7.9h1v-6.3l2.6,4.9c0,0.2,0.2,0.3,0.5,0.3h0.2c0.2,0,0.3-0.2,0.5-0.3l2.6-4.8v6.3h1
			v-7.9h-0.8C51.7,97.1,51.7,97.1,51.5,97.1"/>
		<path id="Caminho_2668" class="st1" d="M59.7,97.8l-1-0.5c-0.5-0.2-0.8-0.2-1.3-0.2H55v7.9h1.2v-3h1.2c0.5,0,0.8,0,1.3-0.2l1-0.5
			c0.3-0.2,0.5-0.5,0.5-0.8c0.2-0.3,0.2-0.7,0.2-1s0-0.7-0.2-1C60.2,98.3,59.9,97.9,59.7,97.8 M59.2,100.2c0,0.2-0.2,0.3-0.3,0.5
			c-0.2,0.2-0.3,0.3-0.5,0.3c-0.3,0-0.5,0.2-0.8,0.2h-1.2v-3.3h1.2c0.5,0,1,0.2,1.3,0.5c0.3,0.3,0.5,0.7,0.5,1.2
			C59.2,99.7,59.2,99.9,59.2,100.2"/>
		<path id="Caminho_2669" class="st1" d="M65.5,101.5c0.3,0,0.5-0.2,0.8-0.3c0.2-0.2,0.5-0.3,0.7-0.5c0.2-0.2,0.3-0.5,0.3-0.7
			c0.2-0.3,0.2-0.5,0.2-0.8s0-0.7-0.2-1s-0.3-0.5-0.5-0.7l-1-0.5c-0.5-0.2-0.8-0.2-1.3-0.2h-2.3v7.9h1.2v-3.3h1.2
			c0.2,0,0.2,0.2,0.2,0.2l2,2.8c0.2,0.2,0.3,0.3,0.5,0.3h1l-2.3-3.1C65.8,101.7,65.7,101.5,65.5,101.5 M64.5,100.9h-1.2v-3h1.2
			c0.5,0,1,0.2,1.3,0.3c0.3,0.3,0.5,0.7,0.5,1c0,0.2,0,0.5-0.2,0.7c0,0.2-0.2,0.3-0.3,0.5c-0.2,0.2-0.3,0.3-0.7,0.3
			C65,100.9,64.7,100.9,64.5,100.9"/>
		<path id="Caminho_2670" class="st1" d="M75.9,98.1c-0.3-0.3-0.8-0.7-1.3-0.8c-1-0.3-2.1-0.3-3.3,0c-0.5,0.2-0.8,0.5-1.3,0.8
			c-0.3,0.3-0.7,0.8-0.8,1.3c-0.3,1-0.3,2.1,0,3.3c0.2,0.5,0.5,1,0.8,1.3c0.3,0.3,0.8,0.7,1.3,0.8c1,0.3,2.1,0.3,3.3,0
			c0.5-0.2,0.8-0.5,1.3-0.8c0.3-0.3,0.7-0.8,0.8-1.3c0.3-1,0.3-2.1,0-3.3C76.4,98.9,76.2,98.4,75.9,98.1 M75.5,102.2l-0.5,1
			c-0.2,0.3-0.5,0.5-0.8,0.7c-0.7,0.3-1.5,0.3-2.3,0c-0.3-0.2-0.7-0.3-0.8-0.7c-0.3-0.3-0.5-0.7-0.5-1c-0.3-0.8-0.3-1.6,0-2.5l0.5-1
			c0.2-0.3,0.5-0.5,0.8-0.7c0.7-0.3,1.5-0.3,2.3,0c0.3,0.2,0.7,0.3,0.8,0.7c0.2,0.3,0.5,0.7,0.5,1C75.7,100.6,75.7,101.4,75.5,102.2
			"/>
		<path id="Caminho_2671" class="st1" d="M86.1,97.1l-0.2,0.2l-2.6,4.8c-0.2,0.2-0.2,0.5-0.3,0.7c0-0.2,0-0.2-0.2-0.3
			c0-0.2-0.2-0.2-0.2-0.3L80,97.3l-0.2-0.2h-1v7.9h1v-6.3l2.6,4.9c0,0.2,0.2,0.3,0.5,0.3h0.2c0.2,0,0.3-0.2,0.5-0.3l2.6-4.8v6.3h1
			v-7.9h-0.8C86.2,97.1,86.1,97.1,86.1,97.1"/>
		<path id="Retângulo_930" class="st1" d="M89.5,97.1h1.2v7.9h-1.2V97.1z"/>
		<path id="Caminho_2672" class="st1" d="M97.1,101.1c-0.2-0.2-0.3-0.3-0.7-0.3c-0.2-0.2-0.5-0.2-0.7-0.3c-0.2,0-0.5-0.2-0.7-0.2
			c-0.2,0-0.3-0.2-0.7-0.3c-0.2-0.2-0.3-0.2-0.5-0.3s-0.2-0.3-0.2-0.5c0-0.2,0-0.3,0.2-0.5c0-0.2,0.2-0.3,0.3-0.3
			c0.2-0.2,0.3-0.2,0.5-0.3c0.2,0,0.3-0.2,0.7-0.2c0.2,0,0.5,0,0.7,0.2c0.2,0,0.3,0.2,0.5,0.2s0.2,0.2,0.3,0.2l0.2,0.2h0.2l0.2-0.2
			l0.3-0.5c-0.3-0.3-0.7-0.5-1-0.7c-0.3-0.2-0.8-0.2-1.2-0.2s-0.7,0-1,0.2c-0.3,0.2-0.5,0.3-0.8,0.5c-0.2,0.2-0.3,0.5-0.5,0.7
			c-0.2,0.3-0.2,0.5-0.2,0.8s0,0.7,0.2,0.8s0.2,0.5,0.5,0.7c0.2,0.2,0.3,0.3,0.7,0.3c0.2,0.2,0.5,0.2,0.7,0.3c0.2,0,0.5,0.2,0.7,0.2
			c0.2,0,0.3,0.2,0.7,0.3c0.2,0.2,0.3,0.2,0.5,0.3s0.2,0.3,0.2,0.5c0,0.2,0,0.3-0.2,0.5c0,0.2-0.2,0.3-0.3,0.5
			c-0.2,0.2-0.3,0.2-0.5,0.3c-0.2,0-0.5,0.2-0.7,0.2c-0.3,0-0.5,0-0.8-0.2c-0.2,0-0.3-0.2-0.5-0.3c-0.2,0-0.3-0.2-0.3-0.3
			c0,0-0.2-0.2-0.3-0.2h-0.2c0,0-0.2,0-0.2,0.2l-0.3,0.5l0.5,0.5c0.2,0.2,0.3,0.2,0.7,0.3c0.5,0.2,1,0.3,1.5,0.3
			c0.3,0,0.8,0,1.2-0.2c0.3-0.2,0.7-0.3,0.8-0.5c0.2-0.2,0.3-0.5,0.5-0.8c0.2-0.3,0.2-0.7,0.2-1c0-0.3,0-0.5-0.2-0.8
			C97.4,101.5,97.3,101.2,97.1,101.1"/>
		<path id="Caminho_2673" class="st1" d="M103.5,101.1c-0.2-0.2-0.3-0.3-0.7-0.3c-0.2-0.2-0.5-0.2-0.7-0.3c-0.2,0-0.5-0.2-0.7-0.2
			c-0.2,0-0.3-0.2-0.7-0.3c-0.2-0.2-0.3-0.2-0.5-0.3v-0.5c0-0.2,0-0.3,0.2-0.5c0-0.2,0.2-0.3,0.3-0.3c0.2-0.2,0.3-0.2,0.5-0.3
			c0.2,0,0.3-0.2,0.7-0.2c0.2,0,0.5,0,0.7,0.2c0.2,0,0.3,0.2,0.5,0.2s0.2,0.2,0.3,0.2l0.2,0.2h0.2l0.2-0.2l0.3-0.5
			c-0.3-0.3-0.7-0.5-1-0.7c-0.3-0.2-0.8-0.2-1.2-0.2s-0.7,0-1,0.2c-0.3,0.2-0.5,0.3-0.8,0.5c-0.2,0.2-0.3,0.5-0.5,0.7
			c-0.2,0.3-0.2,0.5-0.2,0.8s0,0.7,0.2,0.8s0.2,0.5,0.5,0.7c0.2,0.2,0.3,0.3,0.7,0.3c0.2,0.2,0.5,0.2,0.7,0.3c0.2,0,0.5,0.2,0.7,0.2
			c0.2,0,0.3,0.2,0.7,0.3c0.2,0.2,0.3,0.2,0.5,0.3s0.2,0.3,0.2,0.5c0,0.2,0,0.3-0.2,0.5c0,0.2-0.2,0.3-0.3,0.5
			c-0.2,0.2-0.3,0.2-0.5,0.3c-0.2,0-0.5,0.2-0.7,0.2c-0.3,0-0.5,0-0.8-0.2c-0.2,0-0.3-0.2-0.5-0.3s-0.3-0.2-0.3-0.3
			c0,0-0.2-0.2-0.3-0.2h-0.2c0,0-0.2,0-0.2,0.2l-0.3,0.5l0.5,0.5c0.2,0.2,0.3,0.2,0.7,0.3c0.2,0.2,0.5,0.2,0.7,0.2h0.7
			c0.3,0,0.8,0,1.2-0.2s0.7-0.3,0.8-0.5s0.3-0.5,0.5-0.8c0.2-0.3,0.2-0.7,0.2-1c0-0.3,0-0.5-0.2-0.8
			C103.8,101.5,103.7,101.2,103.5,101.1"/>
		<path id="Caminho_2674" class="st1" d="M112.2,98.1c-0.3-0.3-0.8-0.7-1.3-0.8c-1-0.3-2.1-0.3-3.3,0c-0.5,0.2-0.8,0.5-1.3,0.8
			c-0.3,0.3-0.7,0.8-0.8,1.3c-0.3,1-0.3,2.1,0,3.3c0.2,0.5,0.5,1,0.8,1.3c0.3,0.3,0.8,0.7,1.3,0.8c1,0.3,2.1,0.3,3.3,0
			c0.5-0.2,0.8-0.5,1.3-0.8c0.3-0.3,0.7-0.8,0.8-1.3c0.3-1,0.3-2.1,0-3.3C112.9,98.9,112.7,98.4,112.2,98.1 M112.1,102.2l-0.5,1
			c-0.2,0.3-0.5,0.5-0.8,0.7c-0.7,0.3-1.5,0.3-2.3,0c-0.3-0.2-0.7-0.3-0.8-0.7c-0.3-0.3-0.7-0.5-0.7-1c-0.3-0.8-0.3-1.6,0-2.5l0.5-1
			c0.2-0.3,0.5-0.5,0.8-0.7c0.7-0.3,1.5-0.3,2.3,0c0.3,0.2,0.7,0.3,0.8,0.7c0.2,0.3,0.5,0.7,0.5,1
			C112.2,100.6,112.2,101.4,112.1,102.2"/>
		<path id="Caminho_2675" class="st1" d="M124.1,103.2c-0.2,0-0.2,0-0.2,0.2c-0.2,0.2-0.3,0.2-0.3,0.3c-0.2,0.2-0.3,0.2-0.5,0.2
			c-0.2,0-0.3,0.2-0.5,0.2H122c-0.3,0-0.7,0-1-0.2c-0.3-0.2-0.7-0.3-0.8-0.7c-0.3-0.3-0.5-0.7-0.5-1c-0.2-0.5-0.2-0.8-0.2-1.3
			c0-0.5,0-0.8,0.2-1.3l0.5-1c0.2-0.3,0.5-0.5,0.8-0.7c0.3-0.2,0.7-0.2,1.2-0.2c0.5,0,1,0.2,1.5,0.3c0.2,0,0.3,0.2,0.3,0.2l0.2,0.2
			h0.2l0.2-0.2l0.3-0.5c-0.3-0.3-0.7-0.5-1.2-0.7c-0.5-0.2-1-0.3-1.5-0.3s-1.2,0.2-1.6,0.3c-0.5,0.2-0.8,0.5-1.2,0.8
			s-0.7,0.8-0.8,1.3s-0.3,1.2-0.3,1.6s0.2,1.2,0.3,1.6s0.5,1,0.8,1.3c0.3,0.3,0.7,0.7,1.2,0.8s1,0.3,1.5,0.3c0.7,0,1.2-0.2,1.6-0.3
			s0.8-0.5,1.2-0.8l-0.5-0.5L124.1,103.2"/>
		<path id="Caminho_2676" class="st1" d="M132.5,98.1c-0.3-0.3-0.8-0.7-1.3-0.8c-1-0.3-2.1-0.3-3.3,0c-0.5,0.2-0.8,0.5-1.3,0.8
			c-0.3,0.3-0.7,0.8-0.8,1.3c-0.3,1-0.3,2.1,0,3.3c0.2,0.5,0.5,1,0.8,1.3c0.3,0.3,0.8,0.7,1.3,0.8c1,0.3,2.1,0.3,3.3,0
			c0.5-0.2,0.8-0.5,1.3-0.8c0.3-0.3,0.7-0.8,0.8-1.3c0.3-1,0.3-2.1,0-3.3C133.1,98.9,132.8,98.4,132.5,98.1 M132.2,102.2l-0.5,1
			c-0.2,0.3-0.5,0.5-0.8,0.7c-0.7,0.3-1.5,0.3-2.3,0c-0.3-0.2-0.7-0.3-0.8-0.7c-0.3-0.3-0.5-0.7-0.5-1c-0.3-0.8-0.3-1.6,0-2.5l0.5-1
			c0.2-0.3,0.5-0.5,0.8-0.7c0.7-0.3,1.5-0.3,2.3,0c0.3,0.2,0.7,0.3,0.8,0.7c0.2,0.3,0.5,0.7,0.5,1
			C132.5,100.6,132.5,101.4,132.2,102.2"/>
		<path id="Caminho_2677" class="st1" d="M142.7,97.1l-0.2,0.2l-2.6,4.8c-0.2,0.2-0.2,0.5-0.3,0.7c0-0.2,0-0.2-0.2-0.3
			c-0.2-0.2-0.2-0.2-0.2-0.3l-2.6-4.8l-0.2-0.2h-1v7.9h1.2v-6.3l2.6,4.9c0,0.2,0.2,0.3,0.5,0.3h0.2c0.2,0,0.3-0.2,0.5-0.3l2.6-4.8
			v6.3h1v-7.9h-0.8C142.9,97.1,142.9,97.1,142.7,97.1"/>
		<path id="Caminho_2678" class="st1" d="M155.7,98.1c-0.3-0.3-0.8-0.7-1.3-0.8c-1-0.3-2.1-0.3-3.1,0c-0.5,0.2-0.8,0.5-1.3,0.8
			c-0.3,0.3-0.7,0.8-0.8,1.3c-0.3,1-0.3,2.1,0,3.3c0.2,0.5,0.5,1,0.8,1.3c0.3,0.3,0.8,0.7,1.3,0.8c1,0.3,2.1,0.3,3.1,0
			c0.5-0.2,0.8-0.5,1.3-0.8c0.3-0.3,0.7-0.8,0.8-1.3c0.3-1,0.3-2.1,0-3.3C156.3,98.9,156.2,98.4,155.7,98.1 M155.5,102.2l-0.5,1
			c-0.2,0.3-0.5,0.5-0.8,0.7c-0.7,0.3-1.5,0.3-2.3,0c-0.3-0.2-0.7-0.3-0.8-0.7c-0.3-0.3-0.5-0.7-0.5-1c-0.3-0.8-0.3-1.6,0-2.5l0.5-1
			c0.2-0.3,0.5-0.5,0.8-0.7c0.7-0.3,1.5-0.3,2.3,0c0.3,0.2,0.7,0.3,0.8,0.7c0.2,0.3,0.5,0.7,0.5,1
			C155.7,100.6,155.7,101.4,155.5,102.2"/>
		<path id="Caminho_2679" class="st1" d="M166.9,97.1l-0.2,0.2l-2.1,5.4c0,0.2-0.2,0.3-0.2,0.5s-0.2,0.3-0.2,0.5
			c0-0.2-0.2-0.3-0.2-0.5c0-0.2-0.2-0.3-0.2-0.5l-2.1-5.4c0,0,0-0.2-0.2-0.2c0,0-0.2-0.2-0.3,0h-1l3.3,7.9h1l3.3-7.9H166.9
			C167,97.1,167,97.1,166.9,97.1"/>
		<path id="Retângulo_931" class="st1" d="M169.5,97.1h1.2v7.9h-1.2V97.1z"/>
		<path id="Caminho_2680" class="st1" d="M178.6,102.4v0.7l-4.4-5.8l-0.2-0.2h-0.8v7.9h1v-6.1l4.4,5.8l0.2,0.2h0.8v-7.9h-1
			C178.6,96.9,178.6,102.4,178.6,102.4z"/>
		<path id="Caminho_2681" class="st1" d="M187.3,100.6h-4.1v-3.5H182v7.9h1.2v-3.6h4.1v3.6h1.2v-7.9h-1.2V100.6z"/>
		<path id="Caminho_2682" class="st1" d="M197.2,98.1c-0.3-0.3-0.8-0.7-1.3-0.8c-1-0.3-2.1-0.3-3.3,0c-0.5,0.2-0.8,0.5-1.3,0.8
			c-0.3,0.3-0.7,0.8-0.8,1.3c-0.3,1-0.3,2.1,0,3.3c0.2,0.5,0.5,1,0.8,1.3c0.3,0.3,0.8,0.7,1.3,0.8c1,0.3,2.1,0.3,3.3,0
			c0.5-0.2,0.8-0.5,1.3-0.8c0.3-0.3,0.7-0.8,0.8-1.3c0.3-1,0.3-2.1,0-3.3C197.8,98.9,197.5,98.4,197.2,98.1 M196.8,102.2l-0.5,1
			c-0.2,0.3-0.5,0.5-0.8,0.7c-0.7,0.3-1.5,0.3-2.3,0c-0.3-0.2-0.7-0.3-0.8-0.7c-0.3-0.3-0.5-0.7-0.5-1c-0.3-0.8-0.3-1.6,0-2.5l0.5-1
			c0.2-0.3,0.5-0.5,0.8-0.7c0.7-0.3,1.5-0.3,2.3,0c0.3,0.2,0.7,0.3,0.8,0.7c0.2,0.3,0.5,0.7,0.5,1
			C197.2,100.6,197.2,101.4,196.8,102.2"/>
		<path id="Caminho_2683" class="st1" d="M207.4,100.9c0.2,0,0.5-0.2,0.7-0.3c0.2-0.2,0.3-0.3,0.5-0.3c0.2-0.2,0.2-0.3,0.3-0.5
			c0-0.2,0.2-0.3,0.2-0.5c0-0.3,0-0.7-0.2-0.8c-0.2-0.3-0.3-0.5-0.5-0.7c-0.3-0.2-0.5-0.3-0.8-0.5c-0.5-0.2-0.8-0.2-1.3-0.2h-2.6
			v7.9h2.8c0.3,0,0.8,0,1.2-0.2s0.7-0.3,0.8-0.5c0.2-0.2,0.5-0.5,0.5-0.7c0.2-0.3,0.2-0.7,0.2-1
			C209.2,101.7,208.5,101.1,207.4,100.9 M204.6,97.9h1.5c0.5,0,0.8,0,1.3,0.3c0.5,0.5,0.5,1.3,0,2c-0.3,0.3-0.8,0.3-1.3,0.3h-1.3
			C204.7,100.6,204.6,97.9,204.6,97.9z M207.9,103.2c0,0.2-0.2,0.3-0.3,0.5c-0.2,0.2-0.3,0.2-0.5,0.3c-0.3,0-0.5,0.2-0.8,0.2h-1.6
			v-2.6h1.6c0.5,0,0.8,0.2,1.3,0.3c0.3,0.2,0.5,0.5,0.3,1V103.2"/>
		<path id="Caminho_2684" class="st1" d="M214.4,101.5c0.3,0,0.5-0.2,0.8-0.3c0.2-0.2,0.5-0.3,0.7-0.5c0.2-0.2,0.3-0.5,0.3-0.7
			c0.2-0.3,0.2-0.5,0.2-0.8s0-0.7-0.2-1c-0.2-0.3-0.3-0.5-0.5-0.7l-1-0.5c-0.5-0.2-0.8-0.2-1.3-0.2h-2.3v7.9h1.2v-3.3h1.2
			c0.2,0,0.2,0.2,0.2,0.2l2,2.8c0.2,0.2,0.3,0.3,0.5,0.3h1l-2.3-3.1C214.6,101.7,214.6,101.5,214.4,101.5 M213.3,100.9h-1v-3h1.2
			c0.5,0,1,0.2,1.3,0.3c0.3,0.3,0.5,0.7,0.5,1c0,0.2,0,0.5-0.2,0.7c0,0.2-0.2,0.3-0.3,0.5c-0.2,0.2-0.3,0.3-0.7,0.3
			C213.8,100.9,213.6,100.9,213.3,100.9"/>
		<path id="Caminho_2685" class="st1" d="M220.7,97.1l-3.1,7.9h0.8c0.2,0,0.2,0,0.3-0.2l0.2-0.2l0.7-1.8h3.5l0.7,1.8
			c0,0,0,0.2,0.2,0.2h1.2l-3.1-7.9h-1.2L220.7,97.1z M219.9,102l1.2-3.1c0-0.2,0-0.2,0.2-0.3c0-0.2,0.2-0.3,0.2-0.5
			c0,0.3,0.2,0.5,0.3,0.8l1.2,3.1H219.9z"/>
		<path id="Caminho_2686" class="st1" d="M230.4,101.1c-0.2-0.2-0.3-0.3-0.7-0.3c-0.2-0.2-0.5-0.2-0.7-0.3c-0.2,0-0.5-0.2-0.7-0.2
			c-0.2,0-0.3-0.2-0.7-0.3c-0.2-0.2-0.3-0.2-0.5-0.3c-0.2-0.2-0.2-0.3-0.2-0.5c0-0.2,0-0.3,0.2-0.5c0-0.2,0.2-0.3,0.3-0.3
			c0.2-0.2,0.3-0.2,0.5-0.3c0.2,0,0.3-0.2,0.7-0.2c0.2,0,0.5,0,0.7,0.2c0.2,0,0.3,0.2,0.5,0.2s0.2,0.2,0.3,0.2l0.2,0.2h0.2l0.2-0.2
			l0.3-0.5c-0.3-0.3-0.7-0.5-1-0.7c-0.3-0.2-0.8-0.2-1.2-0.2s-0.7,0-1,0.2c-0.3,0.2-0.5,0.3-0.8,0.5c-0.2,0.2-0.3,0.5-0.5,0.7
			c-0.2,0.3-0.2,0.5-0.2,0.8s0,0.7,0.2,0.8c0.2,0.2,0.2,0.5,0.5,0.7c0.2,0.2,0.3,0.3,0.7,0.3c0.2,0.2,0.5,0.2,0.7,0.3
			c0.2,0,0.5,0.2,0.7,0.2c0.2,0,0.3,0.2,0.7,0.3c0.2,0.2,0.3,0.2,0.5,0.3c0.2,0.2,0.2,0.3,0.2,0.5c0,0.2,0,0.3-0.2,0.5
			c0,0.2-0.2,0.3-0.3,0.5c-0.2,0.2-0.3,0.2-0.5,0.3c-0.2,0-0.5,0.2-0.7,0.2c-0.3,0-0.5,0-0.8-0.2c-0.2,0-0.3-0.2-0.5-0.3
			c-0.2-0.2-0.3-0.2-0.3-0.3c0,0-0.2-0.2-0.3-0.2h-0.2c0,0-0.2,0-0.2,0.2l-0.3,0.5l0.5,0.5c0.2,0.2,0.3,0.2,0.7,0.3
			c0.2,0.2,0.5,0.2,0.7,0.2h0.7c0.3,0,0.8,0,1.2-0.2s0.7-0.3,0.8-0.5c0.2-0.2,0.3-0.5,0.5-0.8c0.2-0.3,0.2-0.7,0.2-1
			c0-0.3,0-0.5-0.2-0.8C230.7,101.5,230.6,101.2,230.4,101.1"/>
		<path id="Retângulo_932" class="st1" d="M232.9,97.1h1.2v7.9h-1.2V97.1z"/>
		<path id="Caminho_2687" class="st1" d="M237.6,97.1h-1.2v7.9h4.6v-1h-3.3v-6.9L237.6,97.1z"/>
		<path id="Caminho_2688" class="st1" d="M243.7,101.4h3v-1h-3v-2.5h3.8v-1h-4.9v7.9h4.9v-1h-3.8
			C243.7,103.8,243.7,101.4,243.7,101.4z"/>
		<path id="Retângulo_933" class="st1" d="M249.3,97.1h1.2v7.9h-1.2V97.1z"/>
		<path id="Caminho_2689" class="st1" d="M256.2,101.5c0.3,0,0.5-0.2,0.8-0.3c0.2-0.2,0.5-0.3,0.7-0.5c0.2-0.2,0.3-0.5,0.3-0.7
			c0.2-0.3,0.2-0.5,0.2-0.8s0-0.7-0.2-1s-0.3-0.5-0.5-0.7l-1-0.5c-0.5-0.2-0.8-0.2-1.3-0.2H253v7.9h1.2v-3.3h1.2
			c0.2,0,0.2,0.2,0.2,0.2l2,2.8c0.2,0.2,0.3,0.3,0.5,0.3h1l-2.3-3.1C256.6,101.7,256.4,101.5,256.2,101.5 M255.3,100.9h-1.2v-3h1.2
			c0.5,0,1,0.2,1.3,0.3c0.3,0.3,0.5,0.7,0.5,1c0,0.2,0,0.5-0.2,0.7c0,0.2-0.2,0.3-0.3,0.5c-0.2,0.2-0.3,0.3-0.5,0.3
			C255.8,100.9,255.4,100.9,255.3,100.9"/>
		<path id="Caminho_2690" class="st1" d="M266.6,98.1c-0.3-0.3-0.8-0.7-1.3-0.8c-1-0.3-2.1-0.3-3.1,0c-0.5,0.2-0.8,0.5-1.3,0.8
			c-0.3,0.3-0.7,0.8-0.8,1.3c-0.3,1-0.3,2.1,0,3.3c0.2,0.5,0.5,1,0.8,1.3c0.3,0.3,0.8,0.7,1.3,0.8c1,0.3,2.1,0.3,3.1,0
			c0.5-0.2,0.8-0.5,1.3-0.8c0.3-0.3,0.7-0.8,0.8-1.3c0.3-1,0.3-2.1,0-3.3C267.3,98.9,266.9,98.4,266.6,98.1 M266.3,102.2l-0.5,1
			c-0.2,0.3-0.5,0.5-0.8,0.7c-0.7,0.3-1.5,0.3-2.3,0c-0.3-0.2-0.7-0.3-0.8-0.7c-0.3-0.3-0.5-0.7-0.5-1c-0.3-0.8-0.3-1.6,0-2.5l0.5-1
			c0.2-0.3,0.5-0.5,0.8-0.7c0.7-0.3,1.5-0.3,2.3,0c0.3,0.2,0.7,0.3,0.8,0.7c0.2,0.3,0.5,0.7,0.5,1
			C266.4,100.6,266.4,101.4,266.3,102.2"/>
		<path id="Caminho_2691" class="st1" d="M0,59.1h9.4v26.5h5.8V59.1h9.5v-4.8H0V59.1z"/>
		<path id="Caminho_2692" class="st1" d="M83.3,85.6L70.9,54.3H65L52.8,85.3l-7.6-11.2c-0.2-0.3-0.5-0.7-0.8-1
			c-0.3-0.3-0.7-0.5-1-0.8c1-0.3,2-0.8,3-1.3c0.8-0.5,1.5-1.2,2.1-2s1-1.6,1.3-2.5c0.7-2.1,0.7-4.4-0.2-6.6
			c-0.5-1.2-1.2-2.1-2.1-2.8c-1.2-0.8-2.3-1.5-3.8-1.8c-1.8-0.5-3.6-0.7-5.4-0.7h-9.5v31.3h5.8V73.7H37c0.5,0,0.8,0,1.3,0.2
			c0.3,0.2,0.7,0.5,0.8,0.8l6.6,10c0.5,0.8,1.3,1.2,2.1,1.2h9.5c0.5,0,0.8-0.2,1.2-0.3c0.3-0.2,0.5-0.5,0.7-1l2.3-6.4h13l2.3,6.4
			c0.2,0.3,0.3,0.7,0.7,1c0.3,0.3,0.8,0.3,1.2,0.3C78.7,85.9,83.3,85.6,83.3,85.6z M41.1,68.8c-1,0.3-2,0.5-2.8,0.3h-3.8V58.8h3.8
			c1.6-0.2,3.5,0.3,4.8,1.3c1,0.8,1.6,2.3,1.6,3.6c0,0.8-0.2,1.5-0.3,2.1c-0.3,0.7-0.7,1.3-1.2,1.6C42.5,68.3,41.8,68.6,41.1,68.8
			 M63.2,73.9L67,63.5c0.2-0.5,0.3-1,0.7-1.6c0.2-0.7,0.3-1.3,0.7-2.1c0.2,0.7,0.3,1.5,0.7,2s0.3,1.2,0.7,1.6l3.8,10.4
			C73.4,73.7,63.2,73.9,63.2,73.9z"/>
		<path id="Caminho_2693" class="st1" d="M107.8,84.6c0.2,0.3,0.5,0.7,0.8,0.8c0.3,0.2,0.8,0.2,1.2,0.2h3V54.3h-5.1v20.2
			c0,0.5,0,1,0.2,1.5L91.3,55.1l-0.5-0.5c-0.2-0.2-0.3-0.2-0.3-0.3c-0.2,0-0.3-0.2-0.5-0.2h-3.6v31.3h5.1V66.5c0-0.8,0-1.6-0.2-2.6
			L107.8,84.6z"/>
		<path id="Caminho_2694" class="st1" d="M132.3,85.3c1.3-0.5,2.5-1.2,3.5-2.1c1-1,1.6-2,2.1-3.3s0.7-2.6,0.7-3.9
			c0-1.2-0.2-2.3-0.7-3.3c-0.3-0.8-1-1.6-1.6-2.3s-1.5-1.2-2.3-1.5c-0.8-0.3-1.8-0.8-2.6-1.2c-1-0.3-1.8-0.7-2.6-0.8
			c-0.8-0.2-1.6-0.5-2.3-1c-0.7-0.3-1.2-0.7-1.6-1.3c-0.5-0.5-0.7-1.2-0.7-1.8c0-0.5,0.2-1.2,0.3-1.6s0.5-1,1-1.3
			c0.5-0.3,1-0.7,1.5-0.8c0.7-0.2,1.5-0.3,2.1-0.3c0.8,0,1.6,0.2,2.3,0.3c0.7,0.2,1.2,0.5,1.6,0.8c0.5,0.3,1,0.5,1.3,0.8
			c0.3,0.2,0.7,0.3,1,0.3s0.5,0,0.7-0.2c0.2-0.2,0.5-0.3,0.5-0.7l1.5-2.8c-1.2-1-2.5-1.8-3.9-2.5c-1.6-0.7-3.3-0.8-5.1-0.8
			c-1.5,0-3,0.2-4.4,0.8c-1.2,0.5-2.3,1.2-3.1,2c-1.6,1.6-2.6,3.8-2.6,6.3c0,1.2,0.2,2.5,0.7,3.6c0.3,1,1,1.8,1.6,2.5
			s1.5,1.2,2.3,1.6c0.8,0.3,1.8,0.8,2.6,1c0.8,0.3,1.8,0.5,2.6,0.8c0.8,0.2,1.6,0.5,2.3,0.8s1.2,0.8,1.6,1.3c0.5,0.7,0.7,1.3,0.7,2
			c0,1.3-0.5,2.5-1.3,3.5c-1.2,0.8-2.5,1.3-3.8,1.2c-1,0-1.8-0.2-2.8-0.5l-2-1c-0.5-0.3-1.2-0.7-1.5-1c-0.3-0.3-0.8-0.5-1.2-0.5
			s-0.5,0-0.7,0.2c-0.2,0.2-0.5,0.3-0.5,0.5l-1.6,2.8c0.7,0.7,1.3,1.2,2.1,1.6s1.6,1,2.5,1.3s1.8,0.7,2.8,0.8s2,0.3,3,0.3
			C129.2,86.1,130.8,85.7,132.3,85.3"/>
		<path id="Caminho_2695" class="st1" d="M163.3,59.1v-4.6h-19.7v31.3h5.8V73.1H161v-4.8h-11.7v-9.2H163.3z"/>
		<path id="Caminho_2696" class="st1" d="M187.8,59.1v-4.6H168v31.3h19.7v-4.6H174v-8.9h10.9v-4.4H174v-8.7H187.8z"/>
		<path id="Caminho_2697" class="st1" d="M208.7,73.1c-0.3-0.3-0.7-0.5-1-0.8c1-0.3,2-0.8,3-1.3c0.8-0.5,1.5-1.2,2.1-2
			c0.7-0.8,1-1.6,1.3-2.6c0.7-2.1,0.7-4.4-0.2-6.6c-0.5-1.2-1.2-2.1-2.1-2.8c-1.2-0.8-2.3-1.5-3.8-1.8c-1.8-0.5-3.6-0.7-5.4-0.7H193
			v31.3h5.8V73.6h2.5c0.5,0,0.8,0,1.3,0.2c0.3,0.2,0.7,0.5,0.8,0.8l6.6,10c0.5,0.8,1.3,1.2,2.1,1.2h5.3l-7.9-11.5
			C209.2,73.7,209,73.4,208.7,73.1 M205.2,68.8c-1,0.3-2,0.5-2.8,0.3h-3.6V58.8h3.8c1.6-0.2,3.5,0.3,4.8,1.3c1,0.8,1.6,2.3,1.6,3.6
			c0,0.8-0.2,1.5-0.3,2.1c-0.3,0.7-0.7,1.3-1.2,1.6C206.7,68.3,205.9,68.6,205.2,68.8"/>
		<path id="Caminho_2698" class="st1" d="M217.1,59.1h9.4v26.5h5.8V59.1h9.4v-4.8h-24.7v4.8H217.1z"/>
		<path id="Caminho_2699" class="st1" d="M265.5,81h-13.8v-8.9h10.9v-4.4h-10.9v-8.7h13.8v-4.6h-19.7v31.3h19.7V81z"/>
		<path id="Caminho_2700" class="st1" d="M292.3,78.7c-0.2-0.2-0.5-0.3-0.8-0.3c-0.2,0-0.3,0-0.5,0.2s-0.3,0.2-0.5,0.3
			c-0.5,0.3-1,0.8-1.5,1.2c-0.5,0.3-1,0.5-1.5,0.7c-0.5,0.2-1.2,0.3-1.8,0.5c-0.7,0.2-1.5,0.2-2.1,0.2c-1.3,0-2.5-0.2-3.8-0.8
			c-1.2-0.5-2.1-1.2-3-2.1c-0.8-1-1.6-2.1-2-3.5c-0.5-1.5-0.8-3.1-0.8-4.6c0-1.6,0.2-3.1,0.7-4.6c0.3-1.3,1-2.5,2-3.5
			c0.8-1,1.8-1.6,3-2.1s2.5-0.8,3.8-0.8c0.7,0,1.5,0,2.1,0.2c0.5,0.2,1.2,0.3,1.6,0.5c0.5,0.2,0.8,0.3,1.3,0.7
			c0.3,0.2,0.7,0.5,1,0.7c0.3,0.2,0.5,0.3,0.8,0.5c0.2,0.2,0.5,0.2,0.7,0.2c0.3,0,0.5,0,0.8-0.2l0.5-0.5l2-2.6
			c-1.3-1.3-2.8-2.3-4.4-3c-2-0.8-3.9-1.2-6.1-1.2s-4.3,0.3-6.3,1.2c-1.8,0.8-3.5,1.8-4.9,3.3c-1.3,1.5-2.5,3.1-3.1,5.1
			c-0.8,2.1-1.2,4.3-1.2,6.4c0,2.1,0.3,4.3,1,6.4c0.7,1.8,1.6,3.6,3,5.1c1.3,1.5,3,2.6,4.8,3.3c2,0.8,4.1,1.2,6.3,1.2
			c2.3,0,4.6-0.3,6.7-1.3c1.8-0.8,3.5-2,4.6-3.6L292.3,78.7L292.3,78.7z"/>
		<path id="Caminho_2701" class="st1" d="M131.2,13.5c0.3,0,0.7,0,1-0.2l2,3.5c-1,1.2-1.6,2.6-1.6,4.3c0,3.6,3,6.7,6.6,6.7
			c3,0,5.6-2,6.4-4.8h3.1c0.3,1.2,1,2.3,1.8,3.1l-1.5,2.5c-0.7-0.2-1.3-0.3-2-0.3c-3.6,0-6.7,3-6.7,6.7s3,6.7,6.7,6.7
			c3.6,0,6.7-3,6.7-6.7c0-1.5-0.5-3.1-1.6-4.3l1.6-3c3.6,0.7,7.1-1.6,7.7-5.3c0.7-3.6-1.6-7.1-5.3-7.7c-3.5-0.7-6.7,1.5-7.7,4.8
			h-3.1c-0.3-1-0.7-1.8-1.3-2.5l2-3.5c0.3,0,0.7,0.2,1,0.2c3,0,5.6-2,6.4-4.8h3.3c1,3.6,4.8,5.6,8.2,4.6c3.6-1,5.6-4.8,4.6-8.2
			s-4.8-5.6-8.2-4.6c-2.1,0.7-3.9,2.3-4.6,4.6h-3.3c-1-3.6-4.6-5.6-8.2-4.6c-3.6,1-5.6,4.6-4.6,8.2c0.3,1.3,1.2,2.5,2.1,3.3l-1.6,3
			c-1.3-0.5-2.8-0.5-4.1,0l-1.6-3c2.8-2.5,3.1-6.6,0.7-9.4c-2.5-2.8-6.6-3.1-9.4-0.7c-2.8,2.5-3.1,6.6-0.7,9.4
			C127.5,12.7,129.4,13.5,131.2,13.5 M147.3,37.7c-1.6,0-3-1.3-3-3s1.3-3,3-3s3,1.3,3,3S148.9,37.7,147.3,37.7 M155.2,17.9
			c1.6,0,3,1.3,3,3c0,1.6-1.3,3-3,3s-3-1.3-3-3C152.2,19.4,153.6,17.9,155.2,17.9 M163.3,3.8c1.6,0,3,1.3,3,3s-1.3,3-3,3s-3-1.3-3-3
			S161.6,3.8,163.3,3.8 M147.3,3.8c1.6,0,3,1.3,3,3s-1.3,3-3,3s-3-1.3-3-3S145.7,3.8,147.3,3.8 M139.2,17.9c1.6,0,3,1.3,3,3
			c0,1.6-1.3,3-3,3s-3-1.3-3-3C136.3,19.4,137.6,17.9,139.2,17.9 M131.2,3.8c1.6,0,3,1.3,3,3s-1.3,3-3,3s-3-1.3-3-3
			S129.5,3.8,131.2,3.8"/>
	</g>
</g>
</svg>
