<svg xmlns="http://www.w3.org/2000/svg" xmlns:xlink="http://www.w3.org/1999/xlink" xml:space="preserve" id="Camada_1" width="226.7" height="81" x="0" y="0" style="enable-background:new 0 0 226.7 81" version="1.1"><style>.st1{fill:#fff}</style><defs><path id="SVGID_1_" d="M0 0h226.7v80.8H0z"/></defs><clipPath id="SVGID_00000132800768522098965180000017592360794225345441_"><use xlink:href="#SVGID_1_" style="overflow:visible"/></clipPath><g id="Grupo_1544" style="clip-path:url(#SVGID_00000132800768522098965180000017592360794225345441_)"><path id="Caminho_2665" d="M25.3 79.4c-.1 0-.1 0-.1.1-.1.1-.3.1-.3.3-.1.1-.3.1-.4.1-.1 0-.3.1-.4.1h-.5c-.3 0-.5 0-.8-.1s-.5-.3-.6-.5c-.3-.3-.4-.5-.4-.8-.1-.4-.1-.6-.1-1s0-.6.1-1l.4-.8c.1-.3.4-.4.6-.5.3-.1.5-.1.9-.1.3 0 .4 0 .6.1.1 0 .3.1.4.1.1 0 .3.1.3.1l.1.1h.1l.1-.1.3-.4c-.5-.5-1.3-.8-2-.8-.4 0-.9.1-1.3.3-.4.1-.6.4-.9.6s-.5.6-.6 1c-.1.4-.3.9-.3 1.3s.1.9.3 1.3c.1.4.4.8.6 1 .3.3.5.5.9.6.4.1.8.3 1.1.3.5 0 .9-.1 1.3-.3.4-.1.6-.4.9-.6l-.4-.4c.3.1.3 0 .1 0" class="st1"/><path id="Caminho_2666" d="M31.8 75.5c-.3-.3-.6-.5-1-.6-.8-.3-1.6-.3-2.5 0-.4.1-.6.4-1 .6-.3.3-.5.6-.6 1-.3.8-.3 1.6 0 2.5.1.4.4.8.6 1 .3.3.6.5 1 .6.8.3 1.6.3 2.5 0 .4-.1.6-.4 1-.6.3-.3.5-.6.6-1 .3-.8.3-1.6 0-2.5-.1-.4-.4-.8-.6-1m-.3 3.1-.4.8c-.1.3-.4.4-.6.5-.5.3-1.1.3-1.8 0-.3-.1-.5-.3-.6-.5-.3-.3-.4-.5-.4-.8-.3-.6-.3-1.3 0-1.9l.4-.8c.1-.3.4-.4.6-.5.5-.3 1.1-.3 1.8 0 .3.1.5.3.6.5.1.3.4.5.4.8.3.7.3 1.3 0 1.9" class="st1"/><path id="Caminho_2667" d="m39.6 74.7-.1.1-2 3.7c-.1.1-.1.4-.3.5 0-.1 0-.1-.1-.3 0-.1-.1-.1-.1-.3l-2-3.7-.1-.1h-.8v6.1h.8V76l2 3.8c0 .1.1.3.4.3h.1c.1 0 .3-.1.4-.3l2-3.7v4.8h.8v-6.1H40c-.2-.1-.2-.1-.4-.1" class="st1"/><path id="Caminho_2668" d="m46 75.2-.8-.4c-.4-.1-.6-.1-1-.1h-1.9v6.1h.9v-2.3h.9c.4 0 .6 0 1-.1l.8-.4c.3-.1.4-.4.4-.6.1-.3.1-.5.1-.8s0-.5-.1-.8c.1-.2-.2-.4-.3-.6m-.4 1.9c0 .1-.1.3-.3.4-.1.1-.3.3-.4.3-.3 0-.4.1-.6.1h-.9v-2.5h.9c.4 0 .8.1 1 .4.3.3.4.5.4.9-.1 0-.1.2-.1.4" class="st1"/><path id="Caminho_2669" d="M50.4 78.1c.3 0 .4-.1.6-.3.1-.1.4-.3.5-.4.1-.1.3-.4.3-.5.1-.3.1-.4.1-.6s0-.5-.1-.8c-.1-.3-.3-.4-.4-.5l-.8-.4c-.4-.1-.6-.1-1-.1h-1.8v6.1h.9v-2.5h.9c.1 0 .1.1.1.1l1.5 2.2c.1.1.3.3.4.3h.8l-1.8-2.4c.1 0-.1-.2-.2-.2m-.8-.5h-.9v-2.3h.9c.4 0 .8.1 1 .3.3.3.4.5.4.8 0 .1 0 .4-.1.5 0 .1-.1.3-.3.4-.1.1-.3.3-.5.3h-.5" class="st1"/><path id="Caminho_2670" d="M58.4 75.5c-.3-.3-.6-.5-1-.6-.8-.3-1.6-.3-2.5 0-.4.1-.6.4-1 .6-.3.3-.5.6-.6 1-.3.8-.3 1.6 0 2.5.1.4.4.8.6 1 .3.3.6.5 1 .6.8.3 1.6.3 2.5 0 .4-.1.6-.4 1-.6.3-.3.5-.6.6-1 .3-.8.3-1.6 0-2.5-.2-.4-.4-.8-.6-1m-.3 3.1-.4.8c-.1.3-.4.4-.6.5-.5.3-1.1.3-1.8 0-.3-.1-.5-.3-.6-.5-.3-.3-.4-.5-.4-.8-.3-.6-.3-1.3 0-1.9l.4-.8c.1-.3.4-.4.6-.5.5-.3 1.1-.3 1.8 0 .3.1.5.3.6.5.1.3.4.5.4.8.2.7.2 1.3 0 1.9" class="st1"/><path id="Caminho_2671" d="m66.2 74.7-.1.1-2 3.7c-.1.1-.1.4-.3.5 0-.1 0-.1-.1-.3 0-.1-.1-.1-.1-.3l-2-3.7-.1-.1h-.8v6.1h.8V76l2 3.8c0 .1.1.3.4.3h.1c.1 0 .3-.1.4-.3l2-3.7v4.8h.8v-6.1h-.6c-.2-.1-.4-.1-.4-.1" class="st1"/><path id="Retângulo_930" d="M68.9 74.7h.9v6.1h-.9v-6.1z" class="st1"/><path id="Caminho_2672" d="M74.7 77.8c-.1-.1-.3-.3-.5-.3-.1-.1-.4-.1-.5-.3-.1 0-.4-.1-.5-.1s-.3-.1-.5-.3c-.1-.1-.3-.1-.4-.3-.1-.1-.1-.3-.1-.4 0-.1 0-.3.1-.4 0-.1.1-.3.3-.3.1-.1.3-.1.4-.3.1 0 .3-.1.5-.1.1 0 .4 0 .5.1.1 0 .3.1.4.1.1 0 .1.1.3.1l.1.1h.1l.1-.1.3-.4c-.3-.3-.5-.4-.8-.5-.3-.1-.6-.1-.9-.1-.3 0-.5 0-.8.1-.3.1-.4.3-.6.4-.1.1-.3.4-.4.5-.1.3-.1.4-.1.6s0 .5.1.6c.1.1.1.4.4.5.1.1.3.3.5.3.1.1.4.1.5.3.1 0 .4.1.5.1.1 0 .3.1.5.3.1.1.3.1.4.3.1.1.1.3.1.4s0 .3-.1.4c0 .1-.1.3-.3.4-.1.1-.3.1-.4.3-.1 0-.4.1-.5.1-.3 0-.4 0-.6-.1-.1 0-.3-.1-.4-.3-.1 0-.3-.1-.3-.3 0 0-.1-.1-.3-.1h-.1s-.1 0-.1.1l-.3.4.4.4c.1.1.3.1.5.3.4.1.8.3 1.1.3.3 0 .6 0 .9-.1.3-.1.5-.3.6-.4.1-.1.3-.4.4-.6.1-.3.1-.5.1-.8s0-.4-.1-.6c-.2 0-.4-.2-.5-.3" class="st1"/><path id="Caminho_2673" d="M79.7 77.8c-.1-.1-.3-.3-.5-.3-.1-.1-.4-.1-.5-.3-.1 0-.4-.1-.5-.1-.1 0-.3-.1-.5-.3-.1-.1-.3-.1-.4-.3v-.4c0-.1 0-.3.1-.4 0-.1.1-.3.3-.3.1-.1.3-.1.4-.3.1 0 .3-.1.5-.1.1 0 .4 0 .5.1.1 0 .3.1.4.1.1 0 .1.1.3.1l.1.1h.1l.1-.1.3-.4c-.3-.3-.5-.4-.8-.5-.3-.1-.6-.1-.9-.1-.3 0-.5 0-.8.1-.3.1-.4.3-.6.4-.1.1-.3.4-.4.5-.1.3-.1.4-.1.6s0 .5.1.6c.1.1.1.4.4.5.1.1.3.3.5.3.1.1.4.1.5.3.1 0 .4.1.5.1s.3.1.5.3c.1.1.3.1.4.3.1.1.1.3.1.4s0 .3-.1.4c0 .1-.1.3-.3.4-.1.1-.3.1-.4.3-.1 0-.4.1-.5.1-.3 0-.4 0-.6-.1-.1 0-.3-.1-.4-.3-.1-.1-.3-.1-.3-.3 0 0-.1-.1-.3-.1h-.1s-.1 0-.1.1l-.3.4.4.4c.1.1.3.1.5.3.1.1.4.1.5.1h.5c.3 0 .6 0 .9-.1.3-.1.5-.3.6-.4.1-.1.3-.4.4-.6.1-.3.1-.5.1-.8s0-.4-.1-.6c-.3.2-.4 0-.5-.1" class="st1"/><path id="Caminho_2674" d="M86.4 75.5c-.3-.3-.6-.5-1-.6-.8-.3-1.6-.3-2.5 0-.4.1-.6.4-1 .6-.3.3-.5.6-.6 1-.3.8-.3 1.6 0 2.5.1.4.4.8.6 1 .3.3.6.5 1 .6.8.3 1.6.3 2.5 0 .4-.1.6-.4 1-.6.3-.3.5-.6.6-1 .3-.8.3-1.6 0-2.5-.1-.4-.2-.8-.6-1m-.2 3.1-.4.8c-.1.3-.4.4-.6.5-.5.3-1.1.3-1.8 0-.3-.1-.5-.3-.6-.5-.3-.3-.5-.4-.5-.8-.3-.6-.3-1.3 0-1.9l.4-.8c.1-.3.4-.4.6-.5.5-.3 1.1-.3 1.8 0 .3.1.5.3.6.5.1.3.4.5.4.8.3.7.3 1.3.1 1.9" class="st1"/><path id="Caminho_2675" d="M95.5 79.4c-.1 0-.1 0-.1.1-.1.1-.3.1-.3.3-.1.1-.3.1-.4.1s-.2.1-.3.1h-.5c-.3 0-.5 0-.8-.1s-.5-.3-.6-.5c-.3-.3-.4-.5-.4-.8-.1-.4-.1-.6-.1-1s0-.6.1-1l.4-.8c.1-.3.4-.4.6-.5.3-.1.5-.1.9-.1s.8.1 1.1.3c.1 0 .3.1.3.1l.1.1h.1l.1-.1.3-.4c-.3-.3-.5-.4-.9-.5-.4-.1-.8-.3-1.1-.3s-.9.1-1.3.3c-.4.1-.6.4-.9.6s-.5.6-.6 1c-.1.4-.3.9-.3 1.3s.1.9.3 1.3c.1.4.4.8.6 1 .3.3.5.5.9.6.4.1.8.3 1.1.3.5 0 .9-.1 1.3-.3.4-.1.6-.4.9-.6l-.4-.4-.1-.1" class="st1"/><path id="Caminho_2676" d="M101.9 75.5c-.3-.3-.6-.5-1-.6-.8-.3-1.6-.3-2.5 0-.4.1-.6.4-1 .6-.3.3-.5.6-.6 1-.3.8-.3 1.6 0 2.5.1.4.4.8.6 1 .3.3.6.5 1 .6.8.3 1.6.3 2.5 0 .4-.1.6-.4 1-.6.3-.3.5-.6.6-1 .3-.8.3-1.6 0-2.5 0-.4-.3-.8-.6-1m-.2 3.1-.4.8c-.1.3-.4.4-.6.5-.5.3-1.1.3-1.8 0-.3-.1-.5-.3-.6-.5-.3-.3-.4-.5-.4-.8-.3-.6-.3-1.3 0-1.9l.4-.8c.1-.3.4-.4.6-.5.5-.3 1.1-.3 1.8 0 .3.1.5.3.6.5.1.3.4.5.4.8.2.7.2 1.3 0 1.9" class="st1"/><path id="Caminho_2677" d="m109.8 74.7-.1.1-2 3.7c-.1.1-.1.4-.3.5 0-.1 0-.1-.1-.3-.1-.1-.1-.1-.1-.3l-2-3.7-.1-.1h-.8v6.1h.9V76l2 3.8c0 .1.1.3.4.3h.1c.1 0 .3-.1.4-.3l2-3.7v4.8h.8v-6.1h-.6c-.4-.1-.4-.1-.5-.1" class="st1"/><path id="Caminho_2678" d="M119.8 75.5c-.3-.3-.6-.5-1-.6-.8-.3-1.6-.3-2.4 0-.4.1-.6.4-1 .6-.3.3-.5.6-.6 1-.3.8-.3 1.6 0 2.5.1.4.4.8.6 1 .3.3.6.5 1 .6.8.3 1.6.3 2.4 0 .4-.1.6-.4 1-.6.3-.3.5-.6.6-1 .3-.8.3-1.6 0-2.5-.1-.4-.2-.8-.6-1m-.1 3.1-.4.8c-.1.3-.4.4-.6.5-.5.3-1.1.3-1.8 0-.3-.1-.5-.3-.6-.5-.3-.3-.4-.5-.4-.8-.3-.6-.3-1.3 0-1.9l.4-.8c.1-.3.4-.4.6-.5.5-.3 1.1-.3 1.8 0 .3.1.5.3.6.5.1.3.4.5.4.8.1.7.1 1.3 0 1.9" class="st1"/><path id="Caminho_2679" d="m128.4 74.7-.1.1-1.6 4.2c0 .1-.1.3-.1.4 0 .1-.1.3-.1.4 0-.1-.1-.3-.1-.4 0-.1-.1-.3-.1-.4l-1.6-4.2s0-.1-.1-.1c0 0-.1-.1-.3 0h-.8l2.5 6.1h.8l2.5-6.1h-.9c.1 0 .1 0 0 0" class="st1"/><path id="Retângulo_931" d="M130.4 74.7h.9v6.1h-.9v-6.1z" class="st1"/><path id="Caminho_2680" d="M137.4 78.8v.5l-3.4-4.4-.1-.1h-.6v6.1h.8v-4.7l3.4 4.4.1.1h.6v-6.1h-.8v4.2z" class="st1"/><path id="Caminho_2681" d="M144.1 77.4H141v-2.7h-.9v6.1h.9V78h3.2v2.8h.9v-6.1h-.9v2.7z" class="st1"/><path id="Caminho_2682" d="M151.7 75.5c-.3-.3-.6-.5-1-.6-.8-.3-1.6-.3-2.5 0-.4.1-.6.4-1 .6-.3.3-.5.6-.6 1-.3.8-.3 1.6 0 2.5.1.4.4.8.6 1 .3.3.6.5 1 .6.8.3 1.6.3 2.5 0 .4-.1.6-.4 1-.6.3-.3.5-.6.6-1 .3-.8.3-1.6 0-2.5-.1-.4-.3-.8-.6-1m-.2 3.1-.4.8c-.1.3-.4.4-.6.5-.5.3-1.1.3-1.8 0-.3-.1-.5-.3-.6-.5-.3-.3-.4-.5-.4-.8-.3-.6-.3-1.3 0-1.9l.3-.7c.1-.3.4-.4.6-.5.5-.3 1.1-.3 1.8 0 .3.1.5.3.6.5.1.3.4.5.4.8.3.6.3 1.2.1 1.8" class="st1"/><path id="Caminho_2683" d="M159.6 77.6c.1 0 .4-.1.5-.3.1-.1.3-.3.4-.3.1-.1.1-.3.3-.4 0-.1.1-.3.1-.4 0-.3 0-.5-.1-.6-.1-.3-.3-.4-.4-.5-.3-.1-.4-.3-.6-.4-.4-.1-.6-.1-1-.1h-2v6.1h2.2c.3 0 .6 0 .9-.1.3-.1.5-.3.6-.4.1-.1.4-.4.4-.5.1-.3.1-.5.1-.8 0-.6-.5-1.1-1.4-1.3m-2.2-2.2h1.1c.4 0 .6 0 1 .3.4.4.4 1 0 1.5-.3.3-.6.3-1 .3h-1c0-.1-.1-2.1-.1-2.1zm2.6 4c0 .1-.1.3-.3.4-.1.1-.3.1-.4.3-.3 0-.4.1-.6.1h-1.3v-2h1.3c.4 0 .6.1 1 .3.3.1.4.4.3.8v.1" class="st1"/><path id="Caminho_2684" d="M165 78.1c.3 0 .4-.1.6-.3.1-.1.4-.3.5-.4.1-.1.3-.4.3-.5.1-.3.1-.4.1-.6s0-.5-.1-.8c-.1-.3-.3-.4-.4-.5l-.8-.4c-.4-.1-.6-.1-1-.1h-1.8v6.1h.9v-2.5h.9c.1 0 .1.1.1.1l1.5 2.2c.1.1.3.3.4.3h.8l-1.8-2.4c-.1 0-.1-.2-.2-.2m-.9-.5h-.8v-2.3h.9c.4 0 .8.1 1 .3.3.3.4.5.4.8 0 .1 0 .4-.1.5 0 .1-.1.3-.3.4-.1.1-.3.3-.5.3h-.6" class="st1"/><path id="Caminho_2685" d="m169.8 74.7-2.4 6.1h.6c.1 0 .1 0 .3-.1l.1-.1.5-1.4h2.7l.5 1.4s0 .1.1.1h.9l-2.4-6.1h-.9v.1zm-.6 3.8.9-2.4c0-.1 0-.1.1-.3 0-.1.1-.3.1-.4 0 .3.1.4.3.6l.9 2.4h-2.3z" class="st1"/><path id="Caminho_2686" d="M177.3 77.8c-.1-.1-.3-.3-.5-.3-.1-.1-.4-.1-.5-.3-.1 0-.4-.1-.5-.1-.1 0-.3-.1-.5-.3-.1-.1-.3-.1-.4-.3-.1-.1-.1-.3-.1-.4 0-.1 0-.3.1-.4 0-.1.1-.3.3-.3.1-.1.3-.1.4-.3.1 0 .3-.1.5-.1.1 0 .4 0 .5.1.1 0 .3.1.4.1.1 0 .1.1.3.1l.1.1h.1l.1-.1.3-.4c-.3-.3-.5-.4-.8-.5-.3-.1-.6-.1-.9-.1-.3 0-.5 0-.8.1-.3.1-.4.3-.6.4-.1.1-.3.4-.4.5-.1.3-.1.4-.1.6s0 .5.1.6c.1.1.1.4.4.5.1.1.3.3.5.3.1.1.4.1.5.3.1 0 .4.1.5.1.1 0 .3.1.5.3.1.1.3.1.4.3.1.1.1.3.1.4s0 .3-.1.4c0 .1-.1.3-.3.4-.1.1-.3.1-.4.3-.1 0-.4.1-.5.1-.3 0-.4 0-.6-.1-.1 0-.3-.1-.4-.3-.1-.1-.3-.1-.3-.3 0 0-.1-.1-.3-.1h-.1s-.1 0-.1.1l-.3.4.4.4c.1.1.3.1.5.3.1.1.4.1.5.1h.5c.3 0 .6 0 .9-.1.3-.1.5-.3.6-.4.1-.1.3-.4.4-.6.1-.3.1-.5.1-.8s0-.4-.1-.6c-.1.2-.3 0-.4-.1" class="st1"/><path id="Retângulo_932" d="M179.2 74.7h.9v6.1h-.9v-6.1z" class="st1"/><path id="Caminho_2687" d="M182.9 74.7h-.9v6.1h3.5V80H183v-5.3h-.1z" class="st1"/><path id="Caminho_2688" d="M187.6 78h2.3v-.8h-2.3v-1.9h2.9v-.8h-3.8v6.1h3.8v-.8h-2.9V78z" class="st1"/><path id="Retângulo_933" d="M191.9 74.7h.9v6.1h-.9v-6.1z" class="st1"/><path id="Caminho_2689" d="M197.2 78.1c.3 0 .4-.1.6-.3.1-.1.4-.3.5-.4.1-.1.3-.4.3-.5.1-.3.1-.4.1-.6s0-.5-.1-.8c-.1-.3-.3-.4-.4-.5l-.8-.4c-.4-.1-.6-.1-1-.1h-1.8v6.1h.9v-2.5h.9c.1 0 .1.1.1.1l1.5 2.2c.1.1.3.3.4.3h.8l-1.8-2.4s-.1-.2-.2-.2m-.8-.5h-.9v-2.3h.9c.4 0 .8.1 1 .3.3.3.4.5.4.8 0 .1 0 .4-.1.5 0 .1-.1.3-.3.4-.1.1-.3.3-.4.3h-.6" class="st1"/><path id="Caminho_2690" d="M205.2 75.5c-.3-.3-.6-.5-1-.6-.8-.3-1.6-.3-2.4 0-.4.1-.6.4-1 .6-.3.3-.5.6-.6 1-.3.8-.3 1.6 0 2.5.1.4.4.8.6 1 .3.3.6.5 1 .6.8.3 1.6.3 2.4 0 .4-.1.6-.4 1-.6.3-.3.5-.6.6-1 .3-.8.3-1.6 0-2.5-.1-.4-.4-.8-.6-1m-.3 3.1-.4.8c-.1.3-.4.4-.6.5-.5.3-1.1.3-1.8 0-.3-.1-.5-.3-.6-.5-.3-.3-.4-.5-.4-.8-.3-.6-.3-1.3 0-1.9l.4-.8c.1-.3.4-.4.6-.5.5-.3 1.1-.3 1.8 0 .3.1.5.3.6.5.1.3.4.5.4.8.1.7.1 1.3 0 1.9" class="st1"/><path id="Caminho_2691" d="M0 45.5h7.2v20.4h4.4V45.5H19v-3.7H0v3.7z" class="st1"/><path id="Caminho_2692" d="m64.1 65.9-9.5-24.1H50l-9.4 23.8-5.8-8.6c-.1-.3-.4-.5-.6-.8-.3-.3-.5-.4-.8-.6.8-.3 1.5-.6 2.3-1 .6-.4 1.1-.9 1.6-1.5s.8-1.3 1-1.9c.5-1.6.5-3.4-.1-5.1-.4-.9-.9-1.6-1.6-2.2-.9-.6-1.8-1.1-2.9-1.4-1.4-.4-2.8-.5-4.2-.5h-7.3v24.1h4.4v-9.4h1.9c.4 0 .6 0 1 .1.3.1.5.4.6.6l5.1 7.7c.4.6 1 .9 1.6.9h7.3c.4 0 .6-.1.9-.3s.4-.4.5-.8l1.8-4.9h10l1.8 4.9c.1.3.3.5.5.8.3.3.6.3.9.3 0 .1 3.6-.1 3.6-.1zm-32.4-13c-.8.3-1.5.4-2.2.3h-2.9v-8h2.9c1.3-.1 2.7.3 3.7 1 .8.6 1.3 1.8 1.3 2.8 0 .6-.1 1.1-.3 1.6-.3.5-.5 1-.9 1.3-.6.7-1.1.9-1.6 1m16.9 4 2.9-8c.1-.4.3-.8.5-1.3.1-.5.3-1 .5-1.6.1.5.3 1.1.5 1.5s.3.9.5 1.3l2.9 8c.1-.1-7.8.1-7.8.1z" class="st1"/><path id="Caminho_2693" d="M83 65.1c.1.3.4.5.6.6.3.1.6.1.9.1h2.3v-24h-3.9v15.6c0 .4 0 .8.1 1.1L70.3 42.4l-.4-.4c-.1-.1-.3-.1-.3-.3-.1 0-.3-.1-.4-.1h-2.8v24.1h3.9V51.2c0-.6 0-1.3-.1-2L83 65.1z" class="st1"/><path id="Caminho_2694" d="M101.8 65.6c1-.4 1.9-.9 2.7-1.6.8-.8 1.3-1.5 1.6-2.5.4-1 .5-2 .5-3 0-.9-.1-1.8-.5-2.5-.3-.6-.8-1.3-1.3-1.8s-1.1-.9-1.8-1.1c-.6-.3-1.4-.6-2-.9-.8-.3-1.4-.5-2-.6s-1.3-.4-1.8-.8c-.5-.3-.9-.5-1.3-1-.4-.4-.5-.9-.5-1.4 0-.4.1-.9.3-1.3.1-.4.4-.8.8-1s.8-.5 1.1-.6c.5-.1 1.1-.3 1.6-.3.6 0 1.3.1 1.8.3.5.1.9.4 1.3.6.4.3.8.4 1 .6.3.1.5.3.8.3s.4 0 .5-.1c.1-.1.4-.3.4-.5l1.1-2.2c-.9-.8-1.9-1.4-3-1.9-1.3-.5-2.5-.6-3.9-.6-1.1 0-2.3.1-3.4.6-.9.4-1.8.9-2.4 1.5-1.3 1.3-2 2.9-2 4.8 0 .9.1 1.9.5 2.8.3.8.8 1.4 1.3 1.9s1.1.9 1.8 1.3c.6.3 1.4.6 2 .8.6.3 1.4.4 2 .6.6.1 1.3.4 1.8.6s.9.6 1.3 1c.4.5.5 1 .5 1.5 0 1-.4 1.9-1 2.7-.9.6-1.9 1-2.9.9-.8 0-1.4-.1-2.2-.4l-1.5-.8c-.4-.3-.9-.5-1.1-.8-.3-.3-.6-.4-.9-.4s-.4 0-.5.1c-.1.1-.4.3-.4.4L90.8 63c.5.5 1 .9 1.6 1.3.6.4 1.3.8 1.9 1 .6.3 1.4.5 2.2.6.8.1 1.5.3 2.3.3.6 0 1.9-.2 3-.6" class="st1"/><path id="Caminho_2695" d="M125.6 45.5V42h-15.2v24h4.4v-9.8h9v-3.7h-9v-7.1h10.8z" class="st1"/><path id="Caminho_2696" d="M144.5 45.5V42h-15.2v24h15.2v-3.5h-10.6v-6.8h8.4v-3.4h-8.4v-6.7h10.6z" class="st1"/><path id="Caminho_2697" d="M160.6 56.2c-.3-.3-.5-.4-.8-.6.8-.3 1.5-.6 2.3-1 .6-.4 1.1-.9 1.6-1.5s.8-1.3 1-2c.5-1.6.5-3.4-.1-5.1-.4-.9-.9-1.6-1.6-2.2-.9-.6-1.8-1.1-2.9-1.4-1.4-.4-2.8-.5-4.2-.5h-7.3V66h4.4v-9.4h1.9c.4 0 .6 0 1 .1.3.1.5.4.6.6l5.1 7.7c.4.6 1 .9 1.6.9h4.1l-6.1-8.9c-.2-.3-.4-.5-.6-.8m-2.7-3.3c-.8.3-1.5.4-2.2.3H153v-8h2.9c1.3-.1 2.7.3 3.7 1 .8.6 1.3 1.8 1.3 2.8 0 .6-.1 1.1-.3 1.6-.3.5-.5 1-.9 1.3-.6.7-1.3.9-1.8 1" class="st1"/><path id="Caminho_2698" d="M167 45.5h7.2v20.4h4.4V45.5h7.2v-3.7h-19v3.7h.2z" class="st1"/><path id="Caminho_2699" d="M204.3 62.3h-10.6v-6.8h8.4v-3.4h-8.4v-6.7h10.6v-3.5h-15.2V66h15.2v-3.7z" class="st1"/><path id="Caminho_2700" d="M224.9 60.5c-.1-.1-.4-.3-.6-.3-.1 0-.3 0-.4.1-.1.1-.3.1-.4.3-.4.3-.8.6-1.1.9-.4.3-.8.4-1.1.5-.4.1-.9.3-1.4.4-.5.1-1.1.1-1.6.1-1 0-1.9-.1-2.9-.6-.9-.4-1.6-.9-2.3-1.6s-1.3-1.6-1.5-2.7c-.4-1.1-.6-2.4-.6-3.5 0-1.3.1-2.4.5-3.5.3-1 .8-1.9 1.5-2.7.6-.8 1.4-1.3 2.3-1.6.9-.4 1.9-.6 2.9-.6.5 0 1.1 0 1.6.1.4.1.9.3 1.3.4.4.1.6.3 1 .5.3.1.5.4.8.5.3.1.4.3.6.4.1.1.4.1.5.1.3 0 .4 0 .6-.1l.4-.4 1.5-2c-1-1-2.2-1.8-3.4-2.3-1.5-.6-3-.9-4.7-.9-1.6 0-3.3.3-4.8.9-1.4.6-2.7 1.4-3.8 2.5-1 1.1-1.9 2.4-2.4 3.9-.6 1.6-.9 3.3-.9 4.9s.3 3.3.8 4.9c.5 1.4 1.3 2.8 2.3 3.9 1 1.1 2.3 2 3.7 2.5 1.5.6 3.2.9 4.8.9 1.8 0 3.5-.3 5.2-1 1.4-.6 2.7-1.5 3.5-2.8l-1.9-2.1z" class="st1"/><path id="Caminho_2701" d="M100.9 10.4c.3 0 .5 0 .8-.1l1.5 2.7c-.8.9-1.3 2-1.3 3.3 0 2.8 2.3 5.2 5.1 5.2 2.3 0 4.3-1.5 4.9-3.7h2.4c.3.9.8 1.8 1.4 2.4l-1.1 1.9c-.5-.1-1-.3-1.5-.3-2.8 0-5.2 2.3-5.2 5.2s2.3 5.2 5.2 5.2c2.8 0 5.2-2.3 5.2-5.2 0-1.1-.4-2.4-1.3-3.3l1.3-2.3c2.8.5 5.4-1.3 6-4.1s-1.3-5.4-4.1-6c-2.7-.5-5.2 1.1-6 3.7h-2.4c-.3-.8-.5-1.4-1-1.9l1.5-2.7c.3 0 .5.1.8.1 2.3 0 4.3-1.5 4.9-3.7h2.5c.8 2.8 3.7 4.3 6.3 3.5 2.8-.8 4.3-3.7 3.5-6.3S126.6-.3 124 .5c-1.6.5-3 1.8-3.5 3.5H118c-.8-2.8-3.5-4.3-6.3-3.5-2.8.8-4.3 3.5-3.5 6.3.3 1 .9 1.9 1.6 2.5l-1.3 2.3c-1-.4-2.2-.4-3.2 0L104 9.3c2.2-1.9 2.4-5.1.5-7.2s-5.1-2.4-7.2-.5S95 6.8 96.9 9c1.3.8 2.6 1.4 4 1.4M113.3 29c-1.3 0-2.3-1-2.3-2.3 0-1.3 1-2.3 2.3-2.3s2.3 1 2.3 2.3c0 1.3-1 2.3-2.3 2.3m6.1-15.2c1.3 0 2.3 1 2.3 2.3 0 1.3-1 2.3-2.3 2.3-1.3 0-2.3-1-2.3-2.3 0-1.2 1.1-2.3 2.3-2.3m6.2-10.9c1.3 0 2.3 1 2.3 2.3s-1 2.3-2.3 2.3-2.3-1-2.3-2.3 1.1-2.3 2.3-2.3m-12.3 0c1.3 0 2.3 1 2.3 2.3s-1 2.3-2.3 2.3-2.3-1-2.3-2.3 1.1-2.3 2.3-2.3m-6.2 10.9c1.3 0 2.3 1 2.3 2.3 0 1.3-1 2.3-2.3 2.3s-2.3-1-2.3-2.3c.1-1.2 1.1-2.3 2.3-2.3m-6.2-10.9c1.3 0 2.3 1 2.3 2.3s-1 2.3-2.3 2.3c-1.3 0-2.3-1-2.3-2.3s1.1-2.3 2.3-2.3" class="st1"/></g></svg>